<svg xmlns="http://www.w3.org/2000/svg" xmlns:xlink="http://www.w3.org/1999/xlink" width="80" zoomAndPan="magnify" viewBox="0 0 60 44.999999" height="60" preserveAspectRatio="xMidYMid meet" version="1.0"><defs><clipPath id="d468b0784c"><path d="M 0 22.5 L 60 22.5 L 60 23.695312 L 0 23.695312 Z M 0 22.5 " clip-rule="nonzero"/></clipPath></defs><g clip-path="url(#d468b0784c)"><path fill="#e3a02b" d="M 0.128906 22.648438 C 19.980469 23.34375 39.894531 23.34375 59.871094 22.648438 C 59.9375 22.648438 60 22.605469 60 22.554688 C 60 22.5 0 22.5 0 22.554688 C 0 22.605469 0.0585938 22.648438 0.128906 22.648438 Z M 0.128906 22.648438 " fill-opacity="1" fill-rule="nonzero"/><path fill="#e3a02b" d="M 0.128906 22.648438 C 19.980469 23.34375 39.894531 23.34375 59.871094 22.648438 C 59.9375 22.648438 60 22.605469 60 22.554688 C 60 22.5 0 22.5 0 22.554688 C 0 22.605469 0.0585938 22.648438 0.128906 22.648438 Z M 0.128906 22.648438 " fill-opacity="1" fill-rule="nonzero"/></g></svg>