<svg xmlns="http://www.w3.org/2000/svg" xmlns:xlink="http://www.w3.org/1999/xlink" width="100" zoomAndPan="magnify" viewBox="0 0 75 74.999997" height="100" preserveAspectRatio="xMidYMid meet" version="1.0"><defs><clipPath id="93794da3d9"><path d="M 0.414062 3.378906 L 74.664062 3.378906 L 74.664062 71.628906 L 0.414062 71.628906 Z M 0.414062 3.378906 " clip-rule="nonzero"/></clipPath><clipPath id="d00af8e250"><path d="M 0 3.378906 L 74.25 3.378906 L 74.25 71.628906 L 0 71.628906 Z M 0 3.378906 " clip-rule="nonzero"/></clipPath></defs><g clip-path="url(#93794da3d9)"><path fill="#ffffff" d="M 72.117188 45.054688 C 69.265625 44.074219 66.652344 43.421875 64.160156 43.125 C 65.167969 39.742188 66.535156 35.703125 70.929688 30.773438 L 72.828125 28.636719 L 69.976562 28.664062 C 66.503906 28.695312 63.238281 28.992188 60.152344 29.617188 C 59.734375 26.082031 58.816406 22.3125 57.417969 18.304688 L 57.003906 17.117188 L 55.816406 17.5 C 51.898438 18.808594 48.421875 20.410156 45.511719 22.339844 C 45.039062 21.6875 44.5625 21.066406 44.089844 20.441406 C 41.921875 17.5625 39.902344 14.890625 38.65625 12.515625 L 37.527344 10.40625 L 36.398438 12.515625 C 35.121094 14.890625 33.101562 17.589844 30.964844 20.441406 C 30.488281 21.066406 30.015625 21.71875 29.539062 22.339844 C 26.601562 20.410156 23.15625 18.808594 19.238281 17.5 L 18.050781 17.117188 L 17.632812 18.304688 C 16.238281 22.339844 15.316406 26.113281 14.902344 29.617188 C 11.84375 28.992188 8.546875 28.664062 5.074219 28.664062 L 2.222656 28.636719 L 4.125 30.773438 C 8.519531 35.703125 9.882812 39.742188 10.894531 43.125 C 8.429688 43.421875 5.785156 44.074219 2.9375 45.054688 L 0.414062 45.945312 L 2.667969 47.339844 C 4.808594 48.675781 6.738281 51.824219 8.28125 54.347656 C 8.753906 55.121094 9.199219 55.832031 9.617188 56.484375 C 11.25 58.890625 13.179688 61.058594 15.316406 62.691406 C 16.148438 63.34375 17.039062 63.910156 17.929688 64.382812 C 17.425781 63.285156 17.011719 61.859375 16.832031 60.644531 C 14.929688 59.1875 13.179688 57.257812 11.726562 55.0625 C 11.339844 54.496094 10.921875 53.785156 10.449219 53.011719 C 9.199219 50.964844 7.714844 48.527344 5.933594 46.746094 C 7.953125 46.152344 9.855469 45.769531 11.636719 45.589844 C 13.59375 51.496094 16.417969 55.417969 20.128906 57.910156 C 20.808594 57.4375 21.550781 56.78125 22.144531 56.1875 C 18.523438 53.960938 15.792969 50.28125 13.921875 44.429688 C 13.804688 44.046875 13.625 43.453125 13.445312 42.886719 C 12.46875 39.652344 11.339844 35.851562 7.804688 31.25 C 13.121094 31.546875 17.871094 32.613281 22.027344 34.632812 C 19.535156 40.75 19.324219 47.191406 24.550781 53.578125 C 25.324219 52.65625 25.945312 51.824219 26.183594 51.378906 C 21.316406 44.816406 22.679688 38.257812 26.007812 32.199219 C 27.9375 28.636719 30.550781 25.164062 32.953125 21.957031 C 34.617188 19.730469 36.21875 17.621094 37.496094 15.601562 C 38.773438 17.621094 40.347656 19.730469 42.039062 21.957031 C 44.472656 25.191406 47.058594 28.636719 48.988281 32.199219 C 52.28125 38.285156 53.679688 44.816406 48.808594 51.378906 C 49.046875 51.824219 49.667969 52.65625 50.441406 53.578125 C 55.667969 47.191406 55.429688 40.75 52.964844 34.632812 C 57.09375 32.613281 61.871094 31.546875 67.1875 31.25 C 63.65625 35.851562 62.496094 39.652344 61.546875 42.886719 C 61.367188 43.480469 61.191406 44.046875 61.070312 44.429688 C 59.199219 50.28125 56.46875 53.960938 52.847656 56.1875 C 53.46875 56.78125 54.183594 57.4375 54.867188 57.910156 C 58.605469 55.386719 61.398438 51.46875 63.355469 45.589844 C 65.140625 45.769531 67.039062 46.152344 69.058594 46.746094 C 67.304688 48.527344 65.820312 50.964844 64.546875 53.011719 C 64.070312 53.785156 63.625 54.496094 63.269531 55.0625 C 61.8125 57.226562 60.0625 59.160156 58.160156 60.644531 C 57.984375 61.859375 57.566406 63.285156 57.0625 64.382812 C 57.953125 63.910156 58.84375 63.34375 59.675781 62.691406 C 61.8125 61.058594 63.773438 58.890625 65.375 56.484375 C 65.820312 55.832031 66.238281 55.121094 66.710938 54.347656 C 68.257812 51.824219 70.1875 48.675781 72.324219 47.339844 L 74.582031 45.945312 Z M 23.808594 31.011719 C 23.570312 31.457031 23.335938 31.902344 23.125 32.347656 C 21.316406 31.488281 19.414062 30.773438 17.394531 30.210938 C 17.722656 27.152344 18.464844 23.855469 19.621094 20.351562 C 22.800781 21.480469 25.621094 22.816406 28.023438 24.390625 C 26.511719 26.527344 25.027344 28.726562 23.808594 31.011719 Z M 51.925781 32.316406 C 51.71875 31.871094 51.480469 31.425781 51.242188 30.980469 C 49.996094 28.695312 48.542969 26.5 46.996094 24.390625 C 49.402344 22.816406 52.222656 21.449219 55.398438 20.324219 C 56.558594 23.824219 57.300781 27.121094 57.628906 30.179688 C 55.667969 30.742188 53.738281 31.457031 51.925781 32.316406 Z M 24.34375 12.039062 C 24.34375 11.027344 25.144531 10.226562 26.15625 10.226562 C 27.164062 10.226562 27.964844 11.027344 27.964844 12.039062 C 27.964844 13.046875 27.164062 13.851562 26.15625 13.851562 C 25.175781 13.851562 24.34375 13.046875 24.34375 12.039062 Z M 47.058594 12.039062 C 47.058594 11.027344 47.859375 10.226562 48.867188 10.226562 C 49.878906 10.226562 50.679688 11.027344 50.679688 12.039062 C 50.679688 13.046875 49.878906 13.851562 48.867188 13.851562 C 47.886719 13.851562 47.058594 13.046875 47.058594 12.039062 Z M 35.714844 5.210938 C 35.714844 4.199219 36.515625 3.398438 37.527344 3.398438 C 38.535156 3.398438 39.335938 4.199219 39.335938 5.210938 C 39.335938 6.21875 38.535156 7.019531 37.527344 7.019531 C 36.515625 7.019531 35.714844 6.21875 35.714844 5.210938 Z M 56.351562 59.542969 C 56.410156 59.691406 56.289062 59.902344 56.113281 60.109375 C 55.636719 60.582031 54.539062 60.851562 53.914062 60.792969 C 52.164062 60.644531 49.878906 58.980469 48.867188 58.148438 C 45.277344 55.269531 44.472656 53.578125 44.207031 53.070312 C 43.96875 52.625 43.582031 47.667969 43.195312 46.746094 C 42.15625 48.292969 41.238281 49.894531 41.238281 53.25 C 41.238281 57.167969 43.285156 59.070312 44.5625 62.363281 C 46.136719 61.859375 47.828125 61.414062 49.582031 61.148438 C 53.171875 60.582031 57.6875 60.136719 54.242188 65.066406 C 52.726562 67.234375 49.492188 68.035156 47.207031 68.628906 C 46.820312 68.71875 46.402344 68.808594 45.957031 68.925781 C 48.511719 69.3125 50.976562 69.726562 51.363281 69.90625 C 52.164062 70.320312 52.550781 71.597656 42.304688 70.738281 L 41.652344 70.679688 C 41.652344 70.679688 41.445312 70.648438 41.058594 70.617188 C 39.664062 70.5 38.507812 70.382812 37.527344 70.261719 C 36.546875 70.382812 35.386719 70.5 33.992188 70.617188 C 33.605469 70.648438 33.398438 70.679688 33.398438 70.679688 L 32.746094 70.738281 C 22.472656 71.597656 22.886719 70.320312 23.691406 69.90625 C 24.046875 69.699219 26.539062 69.3125 29.0625 68.925781 C 28.617188 68.835938 28.203125 68.75 27.816406 68.628906 C 25.5 68.035156 22.292969 67.234375 20.78125 65.066406 C 17.335938 60.167969 21.847656 60.582031 25.441406 61.148438 C 27.195312 61.414062 28.886719 61.859375 30.460938 62.363281 C 31.765625 59.070312 33.785156 57.140625 33.785156 53.25 C 33.785156 49.894531 32.863281 48.292969 31.824219 46.746094 C 31.441406 47.699219 31.054688 52.625 30.816406 53.070312 C 30.550781 53.546875 29.746094 55.238281 26.15625 58.148438 C 25.144531 58.980469 22.859375 60.671875 21.105469 60.792969 C 20.484375 60.851562 19.386719 60.582031 18.910156 60.109375 C 18.703125 59.902344 18.582031 59.691406 18.671875 59.542969 C 18.792969 59.308594 19.535156 59.425781 21.167969 59.988281 C 22.621094 59.988281 27.875 54.140625 28.382812 52.597656 C 28.617188 51.882812 28.558594 49.777344 28.679688 45.234375 C 28.796875 40.691406 30.460938 39.769531 32.835938 39.085938 C 35.210938 38.375 36.042969 36 36.042969 36 C 36.128906 35.613281 36.128906 35.285156 36.128906 35.136719 C 36.101562 34.691406 35.625 33.832031 35.089844 33.207031 C 34.558594 32.585938 33.074219 29.703125 33.636719 27.03125 C 34.199219 24.332031 36.875 24.121094 37.496094 24.121094 C 38.121094 24.121094 40.761719 24.359375 41.355469 27.03125 C 41.921875 29.734375 40.4375 32.585938 39.929688 33.207031 C 39.398438 33.832031 38.921875 34.664062 38.890625 35.136719 C 38.890625 35.285156 38.921875 35.613281 38.980469 36 C 38.980469 36 39.78125 38.375 42.1875 39.085938 C 44.5625 39.800781 46.253906 40.691406 46.34375 45.234375 C 46.464844 49.777344 46.402344 51.882812 46.640625 52.597656 C 47.117188 54.140625 52.402344 59.988281 53.855469 59.988281 C 55.488281 59.425781 56.230469 59.335938 56.351562 59.542969 Z M 56.351562 59.542969 " fill-opacity="1" fill-rule="nonzero"/></g><g clip-path="url(#d00af8e250)"><path fill="#ffffff" d="M 71.703125 45.054688 C 68.851562 44.074219 66.242188 43.421875 63.746094 43.125 C 64.757812 39.742188 66.121094 35.703125 70.515625 30.773438 L 72.417969 28.636719 L 69.566406 28.664062 C 66.09375 28.695312 62.824219 28.992188 59.738281 29.617188 C 59.324219 26.082031 58.402344 22.3125 57.007812 18.304688 L 56.589844 17.117188 L 55.402344 17.5 C 51.484375 18.808594 48.011719 20.410156 45.101562 22.339844 C 44.625 21.6875 44.152344 21.066406 43.675781 20.441406 C 41.507812 17.5625 39.488281 14.890625 38.242188 12.515625 L 37.113281 10.40625 L 35.984375 12.515625 C 34.707031 14.890625 32.691406 17.589844 30.550781 20.441406 C 30.078125 21.066406 29.601562 21.71875 29.125 22.339844 C 26.1875 20.410156 22.742188 18.808594 18.824219 17.5 L 17.636719 17.117188 L 17.222656 18.304688 C 15.824219 22.339844 14.90625 26.113281 14.488281 29.617188 C 11.429688 28.992188 8.136719 28.664062 4.660156 28.664062 L 1.8125 28.636719 L 3.710938 30.773438 C 8.105469 35.703125 9.472656 39.742188 10.480469 43.125 C 8.015625 43.421875 5.375 44.074219 2.523438 45.054688 L 0 45.945312 L 2.257812 47.339844 C 4.394531 48.675781 6.324219 51.824219 7.867188 54.347656 C 8.34375 55.121094 8.789062 55.832031 9.203125 56.484375 C 10.835938 58.890625 12.765625 61.058594 14.90625 62.691406 C 15.734375 63.34375 16.625 63.910156 17.519531 64.382812 C 17.011719 63.285156 16.597656 61.859375 16.417969 60.644531 C 14.519531 59.1875 12.765625 57.257812 11.3125 55.0625 C 10.925781 54.496094 10.511719 53.785156 10.035156 53.011719 C 8.789062 50.964844 7.304688 48.527344 5.523438 46.746094 C 7.542969 46.152344 9.441406 45.769531 11.222656 45.589844 C 13.183594 51.496094 16.003906 55.417969 19.714844 57.910156 C 20.398438 57.4375 21.140625 56.78125 21.734375 56.1875 C 18.113281 53.960938 15.378906 50.28125 13.507812 44.429688 C 13.390625 44.046875 13.210938 43.453125 13.035156 42.886719 C 12.054688 39.652344 10.925781 35.851562 7.394531 31.25 C 12.707031 31.546875 17.457031 32.613281 21.613281 34.632812 C 19.121094 40.75 18.914062 47.191406 24.140625 53.578125 C 24.910156 52.65625 25.535156 51.824219 25.773438 51.378906 C 20.902344 44.816406 22.269531 38.257812 25.59375 32.199219 C 27.523438 28.636719 30.136719 25.164062 32.542969 21.957031 C 34.203125 19.730469 35.808594 17.621094 37.085938 15.601562 C 38.359375 17.621094 39.933594 19.730469 41.625 21.957031 C 44.0625 25.191406 46.644531 28.636719 48.574219 32.199219 C 51.871094 38.285156 53.265625 44.816406 48.394531 51.378906 C 48.632812 51.824219 49.257812 52.65625 50.027344 53.578125 C 55.253906 47.191406 55.015625 40.75 52.554688 34.632812 C 56.679688 32.613281 61.460938 31.546875 66.773438 31.25 C 63.242188 35.851562 62.082031 39.652344 61.132812 42.886719 C 60.957031 43.480469 60.777344 44.046875 60.660156 44.429688 C 58.789062 50.28125 56.054688 53.960938 52.433594 56.1875 C 53.058594 56.78125 53.769531 57.4375 54.453125 57.910156 C 58.195312 55.386719 60.984375 51.46875 62.945312 45.589844 C 64.726562 45.769531 66.625 46.152344 68.644531 46.746094 C 66.894531 48.527344 65.410156 50.964844 64.132812 53.011719 C 63.65625 53.785156 63.210938 54.496094 62.855469 55.0625 C 61.402344 57.226562 59.648438 59.160156 57.75 60.644531 C 57.570312 61.859375 57.15625 63.285156 56.648438 64.382812 C 57.542969 63.910156 58.433594 63.34375 59.261719 62.691406 C 61.402344 61.058594 63.359375 58.890625 64.964844 56.484375 C 65.410156 55.832031 65.824219 55.121094 66.300781 54.347656 C 67.84375 51.824219 69.773438 48.675781 71.910156 47.339844 L 74.167969 45.945312 Z M 23.394531 31.011719 C 23.160156 31.457031 22.921875 31.902344 22.714844 32.347656 C 20.902344 31.488281 19.003906 30.773438 16.984375 30.210938 C 17.308594 27.152344 18.050781 23.855469 19.210938 20.351562 C 22.386719 21.480469 25.207031 22.816406 27.613281 24.390625 C 26.097656 26.527344 24.613281 28.726562 23.394531 31.011719 Z M 51.515625 32.316406 C 51.304688 31.871094 51.070312 31.425781 50.832031 30.980469 C 49.582031 28.695312 48.128906 26.5 46.585938 24.390625 C 48.988281 22.816406 51.8125 21.449219 54.988281 20.324219 C 56.144531 23.824219 56.886719 27.121094 57.214844 30.179688 C 55.253906 30.742188 53.324219 31.457031 51.515625 32.316406 Z M 23.929688 12.039062 C 23.929688 11.027344 24.734375 10.226562 25.742188 10.226562 C 26.75 10.226562 27.554688 11.027344 27.554688 12.039062 C 27.554688 13.046875 26.75 13.851562 25.742188 13.851562 C 24.761719 13.851562 23.929688 13.046875 23.929688 12.039062 Z M 46.644531 12.039062 C 46.644531 11.027344 47.445312 10.226562 48.457031 10.226562 C 49.464844 10.226562 50.265625 11.027344 50.265625 12.039062 C 50.265625 13.046875 49.464844 13.851562 48.457031 13.851562 C 47.476562 13.851562 46.644531 13.046875 46.644531 12.039062 Z M 35.300781 5.210938 C 35.300781 4.199219 36.105469 3.398438 37.113281 3.398438 C 38.125 3.398438 38.925781 4.199219 38.925781 5.210938 C 38.925781 6.21875 38.125 7.019531 37.113281 7.019531 C 36.105469 7.019531 35.300781 6.21875 35.300781 5.210938 Z M 55.9375 59.542969 C 55.996094 59.691406 55.878906 59.902344 55.699219 60.109375 C 55.226562 60.582031 54.125 60.851562 53.503906 60.792969 C 51.75 60.644531 49.464844 58.980469 48.457031 58.148438 C 44.863281 55.269531 44.0625 53.578125 43.792969 53.070312 C 43.554688 52.625 43.171875 47.667969 42.785156 46.746094 C 41.746094 48.292969 40.824219 49.894531 40.824219 53.25 C 40.824219 57.167969 42.875 59.070312 44.152344 62.363281 C 45.722656 61.859375 47.417969 61.414062 49.167969 61.148438 C 52.761719 60.582031 57.273438 60.136719 53.828125 65.066406 C 52.316406 67.234375 49.078125 68.035156 46.792969 68.628906 C 46.40625 68.71875 45.992188 68.808594 45.546875 68.925781 C 48.097656 69.3125 50.5625 69.726562 50.949219 69.90625 C 51.75 70.320312 52.136719 71.597656 41.894531 70.738281 L 41.242188 70.679688 C 41.242188 70.679688 41.03125 70.648438 40.648438 70.617188 C 39.25 70.5 38.09375 70.382812 37.113281 70.261719 C 36.132812 70.382812 34.976562 70.5 33.582031 70.617188 C 33.195312 70.648438 32.988281 70.679688 32.988281 70.679688 L 32.332031 70.738281 C 22.058594 71.597656 22.476562 70.320312 23.277344 69.90625 C 23.632812 69.699219 26.128906 69.3125 28.652344 68.925781 C 28.207031 68.835938 27.789062 68.75 27.40625 68.628906 C 25.089844 68.035156 21.882812 67.234375 20.367188 65.066406 C 16.925781 60.167969 21.4375 60.582031 25.03125 61.148438 C 26.78125 61.414062 28.472656 61.859375 30.046875 62.363281 C 31.355469 59.070312 33.371094 57.140625 33.371094 53.25 C 33.371094 49.894531 32.453125 48.292969 31.414062 46.746094 C 31.027344 47.699219 30.640625 52.625 30.402344 53.070312 C 30.136719 53.546875 29.335938 55.238281 25.742188 58.148438 C 24.734375 58.980469 22.445312 60.671875 20.695312 60.792969 C 20.070312 60.851562 18.972656 60.582031 18.496094 60.109375 C 18.289062 59.902344 18.171875 59.691406 18.261719 59.542969 C 18.378906 59.308594 19.121094 59.425781 20.753906 59.988281 C 22.207031 59.988281 27.464844 54.140625 27.96875 52.597656 C 28.207031 51.882812 28.148438 49.777344 28.265625 45.234375 C 28.382812 40.691406 30.046875 39.769531 32.421875 39.085938 C 34.796875 38.375 35.628906 36 35.628906 36 C 35.71875 35.613281 35.71875 35.285156 35.71875 35.136719 C 35.6875 34.691406 35.214844 33.832031 34.679688 33.207031 C 34.144531 32.585938 32.660156 29.703125 33.222656 27.03125 C 33.789062 24.332031 36.460938 24.121094 37.082031 24.121094 C 37.707031 24.121094 40.351562 24.359375 40.945312 27.03125 C 41.507812 29.734375 40.023438 32.585938 39.519531 33.207031 C 38.984375 33.832031 38.507812 34.664062 38.480469 35.136719 C 38.480469 35.285156 38.507812 35.613281 38.570312 36 C 38.570312 36 39.371094 38.375 41.773438 39.085938 C 44.152344 39.800781 45.84375 40.691406 45.933594 45.234375 C 46.050781 49.777344 45.992188 51.882812 46.230469 52.597656 C 46.703125 54.140625 51.988281 59.988281 53.445312 59.988281 C 55.078125 59.425781 55.820312 59.335938 55.9375 59.542969 Z M 55.9375 59.542969 " fill-opacity="1" fill-rule="nonzero"/></g></svg>