<svg xmlns="http://www.w3.org/2000/svg" xmlns:xlink="http://www.w3.org/1999/xlink" width="60" zoomAndPan="magnify" viewBox="0 0 45 44.999999" height="60" preserveAspectRatio="xMidYMid meet" version="1.0"><defs><clipPath id="fb9c09d43c"><path d="M 0 0 L 45 0 L 45 44.25 L 0 44.25 Z M 0 0 " clip-rule="nonzero"/></clipPath><clipPath id="5700fccf47"><path d="M 0.265625 0.375 L 45 0.375 L 45 44.625 L 0.265625 44.625 Z M 0.265625 0.375 " clip-rule="nonzero"/></clipPath></defs><g clip-path="url(#fb9c09d43c)"><path fill="#ffffff" d="M 43.335938 13.042969 C 43.25 14.027344 43.1875 15.144531 43.125 16.324219 C 42.882812 20.777344 42.582031 26.320312 40.863281 29.382812 C 39.890625 31.128906 38.726562 32.125 37.371094 33.28125 C 36.578125 33.957031 35.765625 34.65625 34.9375 35.554688 C 32.445312 38.265625 32.03125 39.609375 31.988281 42.527344 C 31.976562 42.933594 31.640625 43.269531 31.226562 43.269531 L 23.046875 43.269531 L 23.046875 37.644531 C 23.046875 35.851562 23.78125 34.308594 25.175781 33.183594 L 31.863281 27.769531 C 32.347656 27.375 33.066406 27.449219 33.457031 27.9375 C 33.652344 28.171875 33.738281 28.46875 33.703125 28.773438 C 33.675781 29.078125 33.527344 29.347656 33.292969 29.539062 L 27.441406 34.28125 C 27.148438 34.515625 27.101562 34.941406 27.335938 35.230469 C 27.472656 35.394531 27.667969 35.480469 27.863281 35.480469 C 28.015625 35.480469 28.164062 35.429688 28.289062 35.332031 L 34.144531 30.589844 C 34.65625 30.171875 34.980469 29.578125 35.050781 28.914062 C 35.101562 28.464844 35.027344 28.019531 34.84375 27.621094 L 37.171875 25.339844 C 38.21875 24.320312 38.875 23.183594 39.226562 21.765625 L 41.480469 12.75 C 41.582031 12.34375 41.929688 12.070312 42.347656 12.070312 L 42.4375 12.070312 C 42.695312 12.070312 42.929688 12.171875 43.101562 12.359375 C 43.273438 12.542969 43.351562 12.785156 43.335938 13.042969 Z M 21.695312 43.269531 L 13.507812 43.269531 C 13.097656 43.269531 12.761719 42.933594 12.753906 42.527344 C 12.707031 39.609375 12.292969 38.265625 9.804688 35.554688 C 8.972656 34.65625 8.15625 33.957031 7.367188 33.28125 C 6.015625 32.125 4.847656 31.128906 3.871094 29.382812 C 2.160156 26.320312 1.855469 20.777344 1.613281 16.324219 C 1.546875 15.144531 1.484375 14.027344 1.40625 13.042969 C 1.382812 12.785156 1.46875 12.542969 1.640625 12.359375 C 1.8125 12.171875 2.046875 12.070312 2.300781 12.070312 L 2.386719 12.070312 C 2.804688 12.070312 3.15625 12.34375 3.261719 12.75 L 5.515625 21.765625 C 5.867188 23.183594 6.519531 24.320312 7.5625 25.339844 L 9.894531 27.621094 C 9.714844 28.019531 9.640625 28.464844 9.683594 28.914062 C 9.757812 29.578125 10.078125 30.171875 10.597656 30.589844 L 16.449219 35.332031 C 16.578125 35.429688 16.726562 35.480469 16.875 35.480469 C 17.074219 35.480469 17.265625 35.394531 17.398438 35.230469 C 17.636719 34.941406 17.59375 34.515625 17.300781 34.28125 L 11.441406 29.539062 C 10.957031 29.144531 10.882812 28.425781 11.277344 27.9375 C 11.464844 27.703125 11.738281 27.558594 12.039062 27.523438 C 12.34375 27.492188 12.644531 27.578125 12.878906 27.769531 L 19.566406 33.183594 C 20.957031 34.308594 21.695312 35.851562 21.695312 37.644531 Z M 11.003906 6.097656 C 8.097656 8.941406 6.148438 12.855469 5.777344 17.242188 L 6.820312 21.4375 C 7.101562 22.542969 7.597656 23.441406 8.382812 24.25 C 8.835938 22.917969 9.808594 21.835938 11.066406 21.246094 C 10.457031 20.671875 10.074219 19.851562 10.074219 18.949219 C 10.074219 17.703125 10.792969 16.625 11.835938 16.109375 C 12.207031 13.175781 13.164062 10.378906 14.644531 7.847656 C 13.347656 7.378906 12.125 6.792969 11.003906 6.097656 Z M 17.910156 26.515625 L 17.910156 30.105469 L 20.417969 32.132812 C 21.273438 32.824219 21.929688 33.644531 22.367188 34.566406 C 22.8125 33.644531 23.464844 32.824219 24.324219 32.132812 L 26.824219 30.105469 L 26.824219 26.515625 C 26.824219 24.058594 24.828125 22.058594 22.367188 22.058594 C 19.914062 22.058594 17.910156 24.058594 17.910156 26.515625 Z M 21.695312 9.160156 C 19.714844 9.105469 17.78125 8.804688 15.960938 8.277344 C 14.574219 10.574219 13.648438 13.117188 13.246094 15.78125 C 14.984375 15.785156 16.398438 17.207031 16.398438 18.949219 C 16.398438 19.851562 16.019531 20.667969 15.40625 21.246094 C 16.308594 21.671875 17.074219 22.351562 17.597656 23.207031 C 18.207031 22.332031 19.058594 21.628906 20.046875 21.195312 C 19.292969 20.542969 18.8125 19.578125 18.8125 18.507812 C 18.8125 16.777344 20.058594 15.332031 21.695312 15.019531 Z M 15.371094 6.675781 C 14.210938 6.273438 13.089844 5.765625 12.046875 5.152344 C 14.335938 3.25 17.097656 1.960938 20.085938 1.523438 C 18.238281 3.019531 16.652344 4.757812 15.371094 6.675781 Z M 21.695312 1.988281 C 19.738281 3.441406 18.066406 5.164062 16.726562 7.089844 C 18.335938 7.519531 20.011719 7.761719 21.695312 7.8125 Z M 24.648438 1.523438 C 27.640625 1.960938 30.402344 3.25 32.6875 5.152344 C 31.644531 5.765625 30.53125 6.273438 29.367188 6.671875 C 28.085938 4.757812 26.5 3.019531 24.648438 1.523438 Z M 23.046875 7.8125 C 24.730469 7.757812 26.40625 7.519531 28.011719 7.089844 C 26.675781 5.164062 25.003906 3.441406 23.046875 1.988281 Z M 20.164062 18.507812 C 20.164062 19.71875 21.152344 20.707031 22.367188 20.707031 C 23.582031 20.707031 24.570312 19.71875 24.570312 18.507812 C 24.570312 17.292969 23.582031 16.304688 22.367188 16.304688 C 21.152344 16.304688 20.164062 17.292969 20.164062 18.507812 Z M 28.335938 18.949219 C 28.335938 17.203125 29.75 15.785156 31.492188 15.78125 C 31.089844 13.117188 30.160156 10.574219 28.78125 8.277344 C 26.953125 8.800781 25.019531 9.105469 23.046875 9.160156 L 23.046875 15.019531 C 24.683594 15.332031 25.921875 16.777344 25.921875 18.507812 C 25.921875 19.578125 25.441406 20.542969 24.691406 21.195312 C 25.683594 21.628906 26.527344 22.332031 27.136719 23.207031 C 27.664062 22.351562 28.425781 21.671875 29.328125 21.246094 C 28.71875 20.667969 28.335938 19.851562 28.335938 18.949219 Z M 31.503906 20.761719 C 32.5 20.761719 33.316406 19.949219 33.316406 18.949219 C 33.316406 17.945312 32.5 17.132812 31.503906 17.132812 C 30.503906 17.132812 29.6875 17.945312 29.6875 18.949219 C 29.6875 19.949219 30.503906 20.761719 31.503906 20.761719 Z M 11.425781 18.949219 C 11.425781 19.949219 12.234375 20.761719 13.238281 20.761719 C 14.238281 20.761719 15.046875 19.949219 15.046875 18.949219 C 15.046875 17.945312 14.238281 17.132812 13.238281 17.132812 C 12.234375 17.132812 11.425781 17.945312 11.425781 18.949219 Z M 10.769531 26.585938 C 11.105469 26.363281 11.488281 26.222656 11.898438 26.179688 C 12.566406 26.109375 13.210938 26.300781 13.730469 26.71875 L 16.558594 29.011719 L 16.558594 26.515625 C 16.558594 25.90625 16.65625 25.316406 16.832031 24.765625 C 16.34375 23.195312 14.894531 22.113281 13.238281 22.113281 C 11.351562 22.113281 9.765625 23.515625 9.507812 25.351562 Z M 33.96875 26.589844 L 35.226562 25.351562 C 34.972656 23.515625 33.390625 22.113281 31.503906 22.113281 C 29.847656 22.113281 28.394531 23.195312 27.90625 24.765625 C 28.085938 25.316406 28.175781 25.90625 28.175781 26.515625 L 28.175781 29.011719 L 31.011719 26.71875 C 31.878906 26.015625 33.082031 25.996094 33.96875 26.589844 Z M 38.964844 17.242188 C 38.589844 12.855469 36.636719 8.941406 33.738281 6.097656 C 32.613281 6.792969 31.394531 7.378906 30.097656 7.847656 C 31.570312 10.378906 32.535156 13.175781 32.898438 16.109375 C 33.949219 16.625 34.667969 17.703125 34.667969 18.949219 C 34.667969 19.851562 34.285156 20.667969 33.675781 21.246094 C 34.925781 21.835938 35.90625 22.917969 36.351562 24.25 C 37.140625 23.441406 37.640625 22.542969 37.914062 21.4375 Z M 44.09375 11.441406 C 43.671875 10.980469 43.066406 10.71875 42.4375 10.71875 L 42.347656 10.71875 C 41.316406 10.71875 40.417969 11.417969 40.167969 12.421875 L 39.78125 13.976562 C 38.914062 10.5625 37.132812 7.457031 34.605469 5.011719 C 31.269531 1.78125 26.921875 0.00390625 22.367188 0.00390625 C 17.816406 0.00390625 13.46875 1.78125 10.128906 5.011719 C 7.601562 7.457031 5.828125 10.5625 4.960938 13.976562 L 4.566406 12.421875 C 4.320312 11.417969 3.421875 10.71875 2.386719 10.71875 L 2.300781 10.71875 C 1.667969 10.71875 1.070312 10.980469 0.640625 11.441406 C 0.21875 11.902344 0.0078125 12.527344 0.0585938 13.152344 C 0.140625 14.121094 0.203125 15.226562 0.265625 16.398438 C 0.515625 20.992188 0.824219 26.707031 2.695312 30.042969 C 3.785156 32 5.097656 33.121094 6.488281 34.308594 C 7.25 34.960938 8.035156 35.632812 8.804688 36.472656 C 11.152344 39.019531 11.363281 40.042969 11.402344 42.546875 C 11.417969 43.691406 12.367188 44.621094 13.507812 44.621094 L 31.226562 44.621094 C 32.375 44.621094 33.316406 43.691406 33.339844 42.550781 C 33.375 40.042969 33.585938 39.019531 35.929688 36.472656 C 36.707031 35.632812 37.492188 34.960938 38.25 34.308594 C 39.636719 33.121094 40.949219 32 42.046875 30.042969 C 43.910156 26.707031 44.226562 20.992188 44.476562 16.398438 C 44.539062 15.226562 44.597656 14.121094 44.679688 13.152344 C 44.734375 12.527344 44.515625 11.902344 44.09375 11.441406 Z M 44.09375 11.441406 " fill-opacity="1" fill-rule="evenodd"/></g><g clip-path="url(#5700fccf47)"><path fill="#ffffff" d="M 43.597656 13.417969 C 43.515625 14.40625 43.453125 15.519531 43.386719 16.699219 C 43.148438 21.152344 42.847656 26.695312 41.128906 29.761719 C 40.152344 31.503906 38.988281 32.503906 37.636719 33.65625 C 36.84375 34.335938 36.027344 35.035156 35.203125 35.933594 C 32.707031 38.640625 32.296875 39.984375 32.25 42.902344 C 32.238281 43.3125 31.902344 43.644531 31.492188 43.644531 L 23.3125 43.644531 L 23.3125 38.019531 C 23.3125 36.226562 24.046875 34.6875 25.4375 33.558594 L 32.125 28.144531 C 32.609375 27.75 33.328125 27.828125 33.722656 28.3125 C 33.917969 28.550781 34.003906 28.847656 33.96875 29.148438 C 33.941406 29.453125 33.792969 29.726562 33.558594 29.917969 L 27.703125 34.65625 C 27.414062 34.890625 27.367188 35.316406 27.601562 35.605469 C 27.738281 35.773438 27.933594 35.859375 28.125 35.859375 C 28.28125 35.859375 28.429688 35.808594 28.554688 35.707031 L 34.410156 30.96875 C 34.921875 30.550781 35.246094 29.957031 35.316406 29.292969 C 35.367188 28.839844 35.292969 28.398438 35.109375 28 L 37.4375 25.71875 C 38.480469 24.695312 39.136719 23.558594 39.492188 22.140625 L 41.746094 13.125 C 41.847656 12.71875 42.195312 12.445312 42.613281 12.445312 L 42.703125 12.445312 C 42.960938 12.445312 43.195312 12.550781 43.367188 12.734375 C 43.535156 12.921875 43.617188 13.164062 43.597656 13.417969 Z M 21.960938 43.644531 L 13.773438 43.644531 C 13.359375 43.644531 13.023438 43.3125 13.019531 42.902344 C 12.972656 39.984375 12.554688 38.640625 10.070312 35.933594 C 9.234375 35.035156 8.421875 34.335938 7.632812 33.65625 C 6.28125 32.503906 5.109375 31.503906 4.136719 29.761719 C 2.425781 26.695312 2.121094 21.152344 1.875 16.699219 C 1.8125 15.519531 1.75 14.40625 1.671875 13.417969 C 1.648438 13.164062 1.734375 12.921875 1.90625 12.734375 C 2.074219 12.550781 2.308594 12.445312 2.566406 12.445312 L 2.652344 12.445312 C 3.070312 12.445312 3.421875 12.71875 3.523438 13.125 L 5.777344 22.140625 C 6.132812 23.558594 6.78125 24.695312 7.828125 25.71875 L 10.160156 28 C 9.976562 28.398438 9.902344 28.839844 9.949219 29.292969 C 10.023438 29.957031 10.34375 30.550781 10.863281 30.96875 L 16.714844 35.707031 C 16.839844 35.808594 16.988281 35.859375 17.136719 35.859375 C 17.335938 35.859375 17.53125 35.773438 17.664062 35.605469 C 17.902344 35.316406 17.855469 34.890625 17.566406 34.65625 L 11.707031 29.917969 C 11.222656 29.519531 11.148438 28.804688 11.539062 28.3125 C 11.730469 28.082031 12.003906 27.933594 12.304688 27.902344 C 12.609375 27.871094 12.910156 27.957031 13.144531 28.144531 L 19.832031 33.558594 C 21.222656 34.6875 21.957031 36.226562 21.957031 38.019531 L 21.957031 43.644531 Z M 11.265625 6.472656 C 8.363281 9.320312 6.410156 13.234375 6.042969 17.617188 L 7.085938 21.8125 C 7.363281 22.921875 7.859375 23.820312 8.648438 24.628906 C 9.097656 23.296875 10.074219 22.214844 11.332031 21.625 C 10.71875 21.046875 10.335938 20.230469 10.335938 19.324219 C 10.335938 18.082031 11.054688 17.003906 12.101562 16.484375 C 12.472656 13.554688 13.429688 10.753906 14.90625 8.222656 C 13.613281 7.757812 12.390625 7.171875 11.265625 6.472656 Z M 18.175781 26.894531 L 18.175781 30.484375 L 20.679688 32.507812 C 21.535156 33.203125 22.191406 34.023438 22.632812 34.941406 C 23.078125 34.023438 23.726562 33.203125 24.589844 32.507812 L 27.089844 30.484375 L 27.089844 26.894531 C 27.089844 24.4375 25.089844 22.4375 22.632812 22.4375 C 20.179688 22.4375 18.175781 24.4375 18.175781 26.894531 Z M 21.960938 9.539062 C 19.980469 9.480469 18.046875 9.179688 16.226562 8.652344 C 14.839844 10.953125 13.914062 13.492188 13.507812 16.15625 C 15.25 16.164062 16.664062 17.582031 16.664062 19.324219 C 16.664062 20.230469 16.28125 21.046875 15.671875 21.625 C 16.574219 22.046875 17.335938 22.726562 17.863281 23.585938 C 18.472656 22.707031 19.324219 22.003906 20.308594 21.570312 C 19.558594 20.917969 19.078125 19.957031 19.078125 18.882812 C 19.078125 17.152344 20.320312 15.710938 21.960938 15.394531 Z M 15.636719 7.050781 C 14.472656 6.648438 13.355469 6.140625 12.3125 5.527344 C 14.597656 3.625 17.359375 2.339844 20.351562 1.898438 C 18.5 3.394531 16.914062 5.132812 15.636719 7.050781 Z M 21.960938 2.367188 C 20.003906 3.816406 18.332031 5.542969 16.988281 7.464844 C 18.597656 7.894531 20.277344 8.136719 21.960938 8.1875 Z M 24.914062 1.898438 C 27.902344 2.339844 30.664062 3.625 32.953125 5.527344 C 31.910156 6.140625 30.796875 6.648438 29.632812 7.050781 C 28.347656 5.132812 26.761719 3.394531 24.914062 1.898438 Z M 23.3125 8.1875 C 24.996094 8.136719 26.671875 7.894531 28.273438 7.464844 C 26.941406 5.542969 25.269531 3.816406 23.3125 2.367188 Z M 20.429688 18.882812 C 20.429688 20.097656 21.417969 21.085938 22.632812 21.085938 C 23.847656 21.085938 24.835938 20.097656 24.835938 18.882812 C 24.835938 17.667969 23.847656 16.679688 22.632812 16.679688 C 21.417969 16.679688 20.429688 17.667969 20.429688 18.882812 Z M 28.601562 19.324219 C 28.601562 17.582031 30.015625 16.164062 31.753906 16.15625 C 31.355469 13.492188 30.425781 10.953125 29.046875 8.652344 C 27.21875 9.179688 25.285156 9.480469 23.3125 9.539062 L 23.3125 15.394531 C 24.949219 15.710938 26.1875 17.152344 26.1875 18.882812 C 26.1875 19.957031 25.707031 20.917969 24.953125 21.570312 C 25.945312 22.003906 26.792969 22.707031 27.402344 23.585938 C 27.925781 22.726562 28.691406 22.046875 29.59375 21.625 C 28.980469 21.046875 28.601562 20.230469 28.601562 19.324219 Z M 31.765625 21.136719 C 32.765625 21.136719 33.582031 20.324219 33.582031 19.324219 C 33.582031 18.324219 32.765625 17.507812 31.765625 17.507812 C 30.769531 17.507812 29.953125 18.324219 29.953125 19.324219 C 29.953125 20.324219 30.769531 21.136719 31.765625 21.136719 Z M 11.6875 19.324219 C 11.6875 20.324219 12.5 21.136719 13.503906 21.136719 C 14.503906 21.136719 15.3125 20.324219 15.3125 19.324219 C 15.3125 18.324219 14.503906 17.507812 13.503906 17.507812 C 12.5 17.507812 11.6875 18.324219 11.6875 19.324219 Z M 11.035156 26.964844 C 11.371094 26.738281 11.753906 26.597656 12.164062 26.554688 C 12.832031 26.488281 13.476562 26.675781 13.996094 27.09375 L 16.824219 29.386719 L 16.824219 26.894531 C 16.824219 26.28125 16.921875 25.695312 17.097656 25.140625 C 16.609375 23.570312 15.160156 22.492188 13.503906 22.492188 C 11.617188 22.492188 10.027344 23.890625 9.773438 25.730469 Z M 34.230469 26.964844 L 35.492188 25.730469 C 35.234375 23.890625 33.65625 22.492188 31.765625 22.492188 C 30.113281 22.492188 28.65625 23.570312 28.171875 25.140625 C 28.347656 25.695312 28.441406 26.28125 28.441406 26.894531 L 28.441406 29.386719 L 31.277344 27.09375 C 32.144531 26.390625 33.347656 26.371094 34.230469 26.964844 Z M 39.230469 17.617188 C 38.851562 13.234375 36.902344 9.320312 34.003906 6.472656 C 32.878906 7.167969 31.660156 7.757812 30.363281 8.222656 C 31.835938 10.753906 32.800781 13.554688 33.164062 16.484375 C 34.214844 17.003906 34.933594 18.082031 34.933594 19.324219 C 34.933594 20.230469 34.550781 21.046875 33.941406 21.625 C 35.191406 22.214844 36.171875 23.296875 36.617188 24.628906 C 37.402344 23.820312 37.90625 22.921875 38.179688 21.8125 Z M 44.359375 11.820312 C 43.9375 11.359375 43.332031 11.09375 42.703125 11.09375 L 42.613281 11.09375 C 41.578125 11.09375 40.683594 11.796875 40.433594 12.800781 L 40.046875 14.351562 C 39.179688 10.9375 37.398438 7.832031 34.871094 5.390625 C 31.53125 2.160156 27.183594 0.378906 22.632812 0.378906 C 18.078125 0.378906 13.730469 2.160156 10.394531 5.390625 C 7.867188 7.832031 6.09375 10.9375 5.226562 14.351562 L 4.832031 12.800781 C 4.585938 11.796875 3.683594 11.09375 2.652344 11.09375 L 2.566406 11.09375 C 1.933594 11.09375 1.335938 11.359375 0.90625 11.820312 C 0.484375 12.28125 0.273438 12.902344 0.324219 13.53125 C 0.402344 14.496094 0.46875 15.605469 0.53125 16.773438 C 0.78125 21.367188 1.089844 27.082031 2.960938 30.417969 C 4.050781 32.375 5.363281 33.496094 6.753906 34.683594 C 7.511719 35.335938 8.300781 36.007812 9.070312 36.847656 C 11.414062 39.398438 11.625 40.421875 11.667969 42.925781 C 11.683594 44.066406 12.628906 44.996094 13.773438 44.996094 L 31.492188 44.996094 C 32.640625 44.996094 33.582031 44.066406 33.605469 42.925781 C 33.636719 40.421875 33.847656 39.398438 36.195312 36.847656 C 36.96875 36.007812 37.757812 35.335938 38.515625 34.683594 C 39.902344 33.496094 41.214844 32.375 42.308594 30.417969 C 44.175781 27.082031 44.488281 21.367188 44.742188 16.773438 C 44.804688 15.605469 44.859375 14.496094 44.945312 13.53125 C 44.996094 12.902344 44.78125 12.28125 44.359375 11.820312 Z M 44.359375 11.820312 " fill-opacity="1" fill-rule="evenodd"/></g></svg>