<svg xmlns="http://www.w3.org/2000/svg" xmlns:xlink="http://www.w3.org/1999/xlink" width="60" zoomAndPan="magnify" viewBox="0 0 45 44.999999" height="60" preserveAspectRatio="xMidYMid meet" version="1.0"><path fill="#ffffff" d="M 23.441406 12.410156 C 23.441406 12.671875 23.351562 12.894531 23.167969 13.078125 C 22.980469 13.261719 22.761719 13.351562 22.5 13.351562 C 22.238281 13.351562 22.019531 13.261719 21.832031 13.078125 C 21.648438 12.894531 21.558594 12.671875 21.558594 12.410156 C 21.558594 12.152344 21.648438 11.929688 21.832031 11.746094 C 22.019531 11.5625 22.238281 11.46875 22.5 11.46875 C 22.761719 11.46875 22.980469 11.5625 23.167969 11.746094 C 23.351562 11.929688 23.441406 12.152344 23.441406 12.410156 Z M 23.441406 12.410156 " fill-opacity="1" fill-rule="nonzero"/><path fill="#ffffff" d="M 23.441406 20.472656 C 23.441406 20.734375 23.351562 20.953125 23.167969 21.140625 C 22.980469 21.324219 22.761719 21.414062 22.5 21.414062 C 22.238281 21.414062 22.019531 21.324219 21.832031 21.140625 C 21.648438 20.953125 21.558594 20.734375 21.558594 20.472656 C 21.558594 20.210938 21.648438 19.992188 21.832031 19.804688 C 22.019531 19.621094 22.238281 19.53125 22.5 19.53125 C 22.761719 19.53125 22.980469 19.621094 23.167969 19.804688 C 23.351562 19.992188 23.441406 20.210938 23.441406 20.472656 Z M 23.441406 20.472656 " fill-opacity="1" fill-rule="nonzero"/><path fill="#ffffff" d="M 23.441406 26.808594 C 23.441406 27.066406 23.351562 27.289062 23.167969 27.472656 C 22.980469 27.65625 22.761719 27.75 22.5 27.75 C 22.238281 27.75 22.019531 27.65625 21.832031 27.472656 C 21.648438 27.289062 21.558594 27.066406 21.558594 26.808594 C 21.558594 26.546875 21.648438 26.324219 21.832031 26.140625 C 22.019531 25.957031 22.238281 25.863281 22.5 25.863281 C 22.761719 25.863281 22.980469 25.957031 23.167969 26.140625 C 23.351562 26.324219 23.441406 26.546875 23.441406 26.808594 Z M 23.441406 26.808594 " fill-opacity="1" fill-rule="nonzero"/><path fill="#ffffff" d="M 23.441406 32.476562 C 23.441406 32.738281 23.351562 32.960938 23.167969 33.144531 C 22.980469 33.328125 22.761719 33.421875 22.5 33.421875 C 22.238281 33.421875 22.019531 33.328125 21.832031 33.144531 C 21.648438 32.960938 21.558594 32.738281 21.558594 32.476562 C 21.558594 32.21875 21.648438 31.996094 21.832031 31.8125 C 22.019531 31.628906 22.238281 31.535156 22.5 31.535156 C 22.761719 31.535156 22.980469 31.628906 23.167969 31.8125 C 23.351562 31.996094 23.441406 32.21875 23.441406 32.476562 Z M 23.441406 32.476562 " fill-opacity="1" fill-rule="nonzero"/><path fill="#ffffff" d="M 23.441406 37.167969 C 23.441406 37.425781 23.351562 37.648438 23.167969 37.832031 C 22.980469 38.015625 22.761719 38.109375 22.5 38.109375 C 22.238281 38.109375 22.019531 38.015625 21.832031 37.832031 C 21.648438 37.648438 21.558594 37.425781 21.558594 37.167969 C 21.558594 36.90625 21.648438 36.683594 21.832031 36.5 C 22.019531 36.316406 22.238281 36.222656 22.5 36.222656 C 22.761719 36.222656 22.980469 36.316406 23.167969 36.5 C 23.351562 36.683594 23.441406 36.90625 23.441406 37.167969 Z M 23.441406 37.167969 " fill-opacity="1" fill-rule="nonzero"/><path fill="#ffffff" d="M 23.441406 0.964844 C 23.441406 1.226562 23.351562 1.449219 23.167969 1.632812 C 22.980469 1.816406 22.761719 1.910156 22.5 1.910156 C 22.238281 1.910156 22.019531 1.816406 21.832031 1.632812 C 21.648438 1.449219 21.558594 1.226562 21.558594 0.964844 C 21.558594 0.707031 21.648438 0.484375 21.832031 0.300781 C 22.019531 0.117188 22.238281 0.0234375 22.5 0.0234375 C 22.761719 0.0234375 22.980469 0.117188 23.167969 0.300781 C 23.351562 0.484375 23.441406 0.707031 23.441406 0.964844 Z M 23.441406 0.964844 " fill-opacity="1" fill-rule="nonzero"/><path fill="#ffffff" d="M 23.441406 4.070312 C 23.441406 4.332031 23.351562 4.554688 23.167969 4.738281 C 22.980469 4.921875 22.761719 5.015625 22.5 5.015625 C 22.238281 5.015625 22.019531 4.921875 21.832031 4.738281 C 21.648438 4.554688 21.558594 4.332031 21.558594 4.070312 C 21.558594 3.8125 21.648438 3.589844 21.832031 3.40625 C 22.019531 3.222656 22.238281 3.128906 22.5 3.128906 C 22.761719 3.128906 22.980469 3.222656 23.167969 3.40625 C 23.351562 3.589844 23.441406 3.8125 23.441406 4.070312 Z M 23.441406 4.070312 " fill-opacity="1" fill-rule="nonzero"/><path fill="#ffffff" d="M 9.789062 37.09375 C 9.789062 37.273438 9.9375 37.417969 10.117188 37.417969 L 20.082031 37.417969 C 20.316406 37.417969 20.519531 37.265625 20.578125 37.039062 C 20.640625 36.8125 20.542969 36.578125 20.339844 36.460938 L 18.128906 35.171875 C 17.90625 35.046875 17.632812 35.046875 17.414062 35.179688 L 16.625 35.652344 C 16.46875 35.746094 16.417969 35.945312 16.511719 36.101562 C 16.605469 36.257812 16.804688 36.308594 16.960938 36.214844 L 17.753906 35.738281 C 17.765625 35.730469 17.785156 35.730469 17.800781 35.738281 L 19.5625 36.765625 L 10.117188 36.765625 C 9.933594 36.765625 9.789062 36.910156 9.789062 37.09375 Z M 9.789062 37.09375 " fill-opacity="1" fill-rule="nonzero"/><path fill="#ffffff" d="M 44.878906 32.480469 C 44.757812 32.246094 44.519531 32.097656 44.257812 32.097656 L 41.109375 32.097656 C 40.804688 32.097656 40.515625 31.953125 40.332031 31.714844 L 38.765625 29.683594 C 37.929688 28.597656 36.96875 27.609375 35.910156 26.738281 L 33.269531 24.566406 C 32.871094 24.238281 32.597656 23.78125 32.5 23.277344 L 31.386719 17.675781 C 30.90625 15.25 28.847656 13.40625 26.378906 13.199219 C 25.964844 13.160156 25.574219 13.007812 25.246094 12.75 C 24.734375 12.347656 24.441406 11.738281 24.441406 11.089844 L 24.441406 10.269531 C 25.875 9.449219 26.863281 7.714844 26.863281 5.710938 C 26.863281 3.878906 26.023438 2.1875 24.675781 1.289062 C 24.523438 1.1875 24.320312 1.230469 24.222656 1.378906 C 24.121094 1.53125 24.160156 1.734375 24.3125 1.835938 C 25.484375 2.613281 26.210938 4.097656 26.210938 5.710938 C 26.210938 8.144531 24.574219 10.125 22.566406 10.125 C 20.558594 10.125 18.925781 8.144531 18.925781 5.710938 C 18.925781 4.167969 19.605469 2.714844 20.699219 1.921875 C 20.84375 1.8125 20.878906 1.609375 20.769531 1.464844 C 20.664062 1.316406 20.460938 1.285156 20.3125 1.390625 C 19.035156 2.320312 18.273438 3.9375 18.273438 5.710938 C 18.273438 7.648438 19.199219 9.335938 20.558594 10.1875 L 20.558594 11.089844 C 20.558594 11.742188 20.265625 12.347656 19.753906 12.75 C 19.425781 13.007812 19.035156 13.164062 18.621094 13.199219 C 16.152344 13.40625 14.09375 15.25 13.613281 17.675781 L 12.5 23.277344 C 12.402344 23.78125 12.128906 24.238281 11.730469 24.566406 L 9.078125 26.75 C 8.027344 27.613281 7.074219 28.597656 6.242188 29.671875 L 4.660156 31.71875 C 4.476562 31.957031 4.183594 32.097656 3.882812 32.097656 L 0.742188 32.097656 C 0.480469 32.097656 0.242188 32.246094 0.121094 32.480469 C 0 32.714844 0.0195312 32.996094 0.175781 33.210938 C 0.707031 33.945312 1.5 34.441406 2.386719 34.597656 C 1.785156 35.203125 1.449219 36.027344 1.46875 36.886719 C 1.488281 37.789062 1.898438 38.640625 2.589844 39.222656 C 4.488281 40.816406 6.902344 41.699219 9.386719 41.699219 C 13.832031 41.699219 18.242188 41.046875 22.496094 39.765625 C 22.5 39.765625 22.5 39.765625 22.503906 39.765625 C 26.757812 41.046875 31.167969 41.699219 35.613281 41.699219 C 38.097656 41.699219 40.511719 40.820312 42.410156 39.222656 C 43.515625 38.296875 43.847656 36.746094 43.222656 35.453125 C 43.144531 35.289062 42.945312 35.21875 42.785156 35.300781 C 42.621094 35.378906 42.554688 35.574219 42.632812 35.734375 C 43.128906 36.761719 42.863281 37.988281 41.992188 38.71875 C 40.207031 40.21875 37.945312 41.042969 35.613281 41.042969 C 31.5625 41.042969 27.539062 40.492188 23.636719 39.410156 L 24.761719 39.058594 C 25.351562 38.875 25.957031 38.769531 26.574219 38.742188 L 30.730469 38.5625 C 31.042969 38.550781 31.304688 38.339844 31.378906 38.035156 C 31.433594 37.8125 31.378906 37.585938 31.242188 37.417969 L 34.886719 37.417969 C 35.066406 37.417969 35.210938 37.273438 35.210938 37.09375 C 35.210938 36.910156 35.066406 36.765625 34.886719 36.765625 C 34.886719 36.765625 30.242188 36.765625 30.234375 36.765625 L 27.585938 35.179688 C 27.367188 35.046875 27.09375 35.046875 26.871094 35.175781 L 24.210938 36.722656 C 24.054688 36.8125 24.003906 37.011719 24.09375 37.167969 C 24.183594 37.324219 24.382812 37.378906 24.542969 37.285156 L 27.203125 35.742188 C 27.21875 35.730469 27.234375 35.730469 27.25 35.742188 L 30.722656 37.824219 C 30.734375 37.828125 30.753906 37.839844 30.746094 37.875 C 30.738281 37.90625 30.714844 37.910156 30.703125 37.910156 L 26.546875 38.089844 C 25.875 38.117188 25.207031 38.234375 24.566406 38.433594 L 22.808594 38.988281 C 18.460938 40.351562 13.945312 41.042969 9.386719 41.042969 C 7.058594 41.042969 4.792969 40.21875 3.011719 38.722656 C 2.464844 38.261719 2.140625 37.585938 2.125 36.871094 C 2.109375 36.15625 2.402344 35.46875 2.929688 34.984375 C 3.039062 34.882812 3.15625 34.785156 3.273438 34.691406 L 4.113281 34.765625 C 4.171875 34.769531 4.234375 34.773438 4.292969 34.773438 C 4.757812 34.773438 5.207031 34.613281 5.570312 34.316406 L 12.902344 28.351562 C 13.9375 27.503906 14.746094 26.402344 15.246094 25.164062 L 17.003906 20.769531 L 17.386719 21.953125 C 18.109375 24.171875 18.046875 26.59375 17.207031 28.773438 L 16.132812 31.558594 C 15.933594 32.070312 15.453125 32.410156 14.902344 32.425781 L 8.984375 32.585938 C 8.804688 32.589844 8.660156 32.742188 8.667969 32.921875 C 8.671875 33.101562 8.824219 33.242188 9 33.238281 L 14.921875 33.078125 C 15.734375 33.058594 16.449219 32.550781 16.742188 31.792969 L 17.816406 29.007812 C 18.710938 26.691406 18.78125 24.109375 18.011719 21.75 L 17.347656 19.707031 C 17.304688 19.578125 17.183594 19.488281 17.046875 19.480469 C 16.910156 19.476562 16.78125 19.558594 16.734375 19.6875 L 14.636719 24.917969 C 14.183594 26.058594 13.4375 27.070312 12.488281 27.84375 L 5.160156 33.808594 C 4.878906 34.039062 4.527344 34.144531 4.171875 34.113281 L 2.757812 33.992188 C 1.9375 33.917969 1.191406 33.492188 0.707031 32.828125 C 0.703125 32.820312 0.691406 32.804688 0.703125 32.777344 C 0.71875 32.753906 0.738281 32.753906 0.746094 32.753906 L 3.882812 32.753906 C 4.386719 32.753906 4.871094 32.515625 5.175781 32.117188 L 6.761719 30.070312 C 7.5625 29.035156 8.484375 28.085938 9.496094 27.253906 L 12.148438 25.070312 C 12.660156 24.648438 13.015625 24.058594 13.144531 23.40625 L 14.257812 17.804688 C 14.679688 15.660156 16.5 14.035156 18.675781 13.847656 C 19.21875 13.804688 19.730469 13.601562 20.160156 13.261719 C 20.828125 12.734375 21.210938 11.941406 21.210938 11.089844 L 21.210938 10.519531 C 21.640625 10.6875 22.09375 10.78125 22.570312 10.78125 C 22.992188 10.78125 23.402344 10.707031 23.789062 10.570312 L 23.789062 11.089844 C 23.789062 11.941406 24.171875 12.734375 24.84375 13.261719 C 25.269531 13.601562 25.78125 13.804688 26.324219 13.851562 C 28.503906 14.035156 30.320312 15.660156 30.746094 17.804688 L 31.855469 23.40625 C 31.984375 24.058594 32.339844 24.648438 32.855469 25.070312 L 35.496094 27.242188 C 36.515625 28.082031 37.441406 29.039062 38.246094 30.085938 L 39.8125 32.117188 C 40.121094 32.515625 40.605469 32.753906 41.109375 32.753906 L 44.257812 32.753906 C 44.261719 32.753906 44.285156 32.753906 44.296875 32.78125 C 44.3125 32.804688 44.300781 32.820312 44.292969 32.828125 C 43.8125 33.496094 43.066406 33.921875 42.246094 33.992188 L 40.832031 34.117188 C 40.472656 34.148438 40.121094 34.039062 39.84375 33.8125 L 32.515625 27.84375 C 31.5625 27.070312 30.820312 26.058594 30.363281 24.921875 L 28.269531 19.6875 C 28.21875 19.5625 28.089844 19.476562 27.957031 19.484375 C 27.820312 19.488281 27.699219 19.578125 27.65625 19.710938 L 26.992188 21.75 C 26.222656 24.113281 26.292969 26.691406 27.1875 29.011719 L 28.257812 31.792969 C 28.550781 32.554688 29.269531 33.058594 30.082031 33.082031 L 38.167969 33.292969 L 39.429688 34.320312 C 39.796875 34.617188 40.246094 34.773438 40.710938 34.773438 C 40.769531 34.773438 40.828125 34.773438 40.890625 34.765625 L 42.304688 34.644531 C 43.3125 34.554688 44.234375 34.035156 44.824219 33.210938 C 44.980469 32.996094 45 32.714844 44.878906 32.480469 Z M 30.101562 32.425781 C 29.550781 32.410156 29.066406 32.070312 28.871094 31.558594 L 27.796875 28.773438 C 26.957031 26.59375 26.890625 24.171875 27.613281 21.953125 L 28 20.769531 L 29.757812 25.164062 C 30.253906 26.402344 31.066406 27.507812 32.101562 28.351562 L 37.339844 32.613281 Z M 30.101562 32.425781 " fill-opacity="1" fill-rule="nonzero"/><path fill="#ffffff" d="M 33.800781 20.363281 L 36.230469 20.546875 C 36.238281 20.546875 36.246094 20.546875 36.253906 20.546875 C 36.421875 20.546875 36.566406 20.414062 36.582031 20.242188 C 36.59375 20.0625 36.457031 19.90625 36.277344 19.894531 L 33.851562 19.710938 C 33.671875 19.695312 33.511719 19.832031 33.5 20.011719 C 33.488281 20.191406 33.621094 20.351562 33.800781 20.363281 Z M 33.800781 20.363281 " fill-opacity="1" fill-rule="nonzero"/><path fill="#ffffff" d="M 30.917969 13.546875 C 31.007812 13.546875 31.097656 13.511719 31.160156 13.4375 L 32.785156 11.625 C 32.90625 11.492188 32.894531 11.285156 32.761719 11.164062 C 32.625 11.042969 32.417969 11.054688 32.296875 11.1875 L 30.675781 13 C 30.554688 13.136719 30.566406 13.34375 30.699219 13.464844 C 30.761719 13.519531 30.839844 13.546875 30.917969 13.546875 Z M 30.917969 13.546875 " fill-opacity="1" fill-rule="nonzero"/><path fill="#ffffff" d="M 8.746094 20.546875 C 8.753906 20.546875 8.761719 20.546875 8.773438 20.546875 L 11.199219 20.363281 C 11.378906 20.347656 11.515625 20.191406 11.5 20.011719 C 11.488281 19.832031 11.328125 19.695312 11.152344 19.710938 L 8.722656 19.894531 C 8.542969 19.90625 8.410156 20.0625 8.421875 20.242188 C 8.433594 20.414062 8.578125 20.546875 8.746094 20.546875 Z M 8.746094 20.546875 " fill-opacity="1" fill-rule="nonzero"/><path fill="#ffffff" d="M 13.839844 13.4375 C 13.902344 13.511719 13.992188 13.546875 14.082031 13.546875 C 14.160156 13.546875 14.238281 13.519531 14.300781 13.464844 C 14.433594 13.34375 14.445312 13.136719 14.324219 13.003906 L 12.703125 11.1875 C 12.582031 11.054688 12.375 11.042969 12.238281 11.164062 C 12.105469 11.285156 12.09375 11.492188 12.214844 11.625 Z M 13.839844 13.4375 " fill-opacity="1" fill-rule="nonzero"/><path fill="#ffffff" d="M 23.441406 12.410156 C 23.441406 12.671875 23.351562 12.894531 23.167969 13.078125 C 22.980469 13.261719 22.761719 13.351562 22.5 13.351562 C 22.238281 13.351562 22.019531 13.261719 21.832031 13.078125 C 21.648438 12.894531 21.558594 12.671875 21.558594 12.410156 C 21.558594 12.152344 21.648438 11.929688 21.832031 11.746094 C 22.019531 11.5625 22.238281 11.46875 22.5 11.46875 C 22.761719 11.46875 22.980469 11.5625 23.167969 11.746094 C 23.351562 11.929688 23.441406 12.152344 23.441406 12.410156 Z M 23.441406 12.410156 " fill-opacity="1" fill-rule="nonzero"/><path fill="#ffffff" d="M 23.441406 20.472656 C 23.441406 20.734375 23.351562 20.953125 23.167969 21.140625 C 22.980469 21.324219 22.761719 21.414062 22.5 21.414062 C 22.238281 21.414062 22.019531 21.324219 21.832031 21.140625 C 21.648438 20.953125 21.558594 20.734375 21.558594 20.472656 C 21.558594 20.210938 21.648438 19.992188 21.832031 19.804688 C 22.019531 19.621094 22.238281 19.53125 22.5 19.53125 C 22.761719 19.53125 22.980469 19.621094 23.167969 19.804688 C 23.351562 19.992188 23.441406 20.210938 23.441406 20.472656 Z M 23.441406 20.472656 " fill-opacity="1" fill-rule="nonzero"/><path fill="#ffffff" d="M 23.441406 26.808594 C 23.441406 27.066406 23.351562 27.289062 23.167969 27.472656 C 22.980469 27.65625 22.761719 27.75 22.5 27.75 C 22.238281 27.75 22.019531 27.65625 21.832031 27.472656 C 21.648438 27.289062 21.558594 27.066406 21.558594 26.808594 C 21.558594 26.546875 21.648438 26.324219 21.832031 26.140625 C 22.019531 25.957031 22.238281 25.863281 22.5 25.863281 C 22.761719 25.863281 22.980469 25.957031 23.167969 26.140625 C 23.351562 26.324219 23.441406 26.546875 23.441406 26.808594 Z M 23.441406 26.808594 " fill-opacity="1" fill-rule="nonzero"/><path fill="#ffffff" d="M 23.441406 32.476562 C 23.441406 32.738281 23.351562 32.960938 23.167969 33.144531 C 22.980469 33.328125 22.761719 33.421875 22.5 33.421875 C 22.238281 33.421875 22.019531 33.328125 21.832031 33.144531 C 21.648438 32.960938 21.558594 32.738281 21.558594 32.476562 C 21.558594 32.21875 21.648438 31.996094 21.832031 31.8125 C 22.019531 31.628906 22.238281 31.535156 22.5 31.535156 C 22.761719 31.535156 22.980469 31.628906 23.167969 31.8125 C 23.351562 31.996094 23.441406 32.21875 23.441406 32.476562 Z M 23.441406 32.476562 " fill-opacity="1" fill-rule="nonzero"/><path fill="#ffffff" d="M 23.441406 37.167969 C 23.441406 37.425781 23.351562 37.648438 23.167969 37.832031 C 22.980469 38.015625 22.761719 38.109375 22.5 38.109375 C 22.238281 38.109375 22.019531 38.015625 21.832031 37.832031 C 21.648438 37.648438 21.558594 37.425781 21.558594 37.167969 C 21.558594 36.90625 21.648438 36.683594 21.832031 36.5 C 22.019531 36.316406 22.238281 36.222656 22.5 36.222656 C 22.761719 36.222656 22.980469 36.316406 23.167969 36.5 C 23.351562 36.683594 23.441406 36.90625 23.441406 37.167969 Z M 23.441406 37.167969 " fill-opacity="1" fill-rule="nonzero"/><path fill="#ffffff" d="M 23.441406 0.964844 C 23.441406 1.226562 23.351562 1.449219 23.167969 1.632812 C 22.980469 1.816406 22.761719 1.910156 22.5 1.910156 C 22.238281 1.910156 22.019531 1.816406 21.832031 1.632812 C 21.648438 1.449219 21.558594 1.226562 21.558594 0.964844 C 21.558594 0.707031 21.648438 0.484375 21.832031 0.300781 C 22.019531 0.117188 22.238281 0.0234375 22.5 0.0234375 C 22.761719 0.0234375 22.980469 0.117188 23.167969 0.300781 C 23.351562 0.484375 23.441406 0.707031 23.441406 0.964844 Z M 23.441406 0.964844 " fill-opacity="1" fill-rule="nonzero"/><path fill="#ffffff" d="M 23.441406 4.070312 C 23.441406 4.332031 23.351562 4.554688 23.167969 4.738281 C 22.980469 4.921875 22.761719 5.015625 22.5 5.015625 C 22.238281 5.015625 22.019531 4.921875 21.832031 4.738281 C 21.648438 4.554688 21.558594 4.332031 21.558594 4.070312 C 21.558594 3.8125 21.648438 3.589844 21.832031 3.40625 C 22.019531 3.222656 22.238281 3.128906 22.5 3.128906 C 22.761719 3.128906 22.980469 3.222656 23.167969 3.40625 C 23.351562 3.589844 23.441406 3.8125 23.441406 4.070312 Z M 23.441406 4.070312 " fill-opacity="1" fill-rule="nonzero"/><path fill="#ffffff" d="M 9.789062 37.09375 C 9.789062 37.273438 9.9375 37.417969 10.117188 37.417969 L 20.082031 37.417969 C 20.316406 37.417969 20.519531 37.265625 20.578125 37.039062 C 20.640625 36.8125 20.542969 36.578125 20.339844 36.460938 L 18.128906 35.171875 C 17.90625 35.046875 17.632812 35.046875 17.414062 35.179688 L 16.625 35.652344 C 16.46875 35.746094 16.417969 35.945312 16.511719 36.101562 C 16.605469 36.257812 16.804688 36.308594 16.960938 36.214844 L 17.753906 35.738281 C 17.765625 35.730469 17.785156 35.730469 17.800781 35.738281 L 19.5625 36.765625 L 10.117188 36.765625 C 9.933594 36.765625 9.789062 36.910156 9.789062 37.09375 Z M 9.789062 37.09375 " fill-opacity="1" fill-rule="nonzero"/><path fill="#ffffff" d="M 44.878906 32.480469 C 44.757812 32.246094 44.519531 32.097656 44.257812 32.097656 L 41.109375 32.097656 C 40.804688 32.097656 40.515625 31.953125 40.332031 31.714844 L 38.765625 29.683594 C 37.929688 28.597656 36.96875 27.609375 35.910156 26.738281 L 33.269531 24.566406 C 32.871094 24.238281 32.597656 23.78125 32.5 23.277344 L 31.386719 17.675781 C 30.90625 15.25 28.847656 13.40625 26.378906 13.199219 C 25.964844 13.160156 25.574219 13.007812 25.246094 12.75 C 24.734375 12.347656 24.441406 11.738281 24.441406 11.089844 L 24.441406 10.269531 C 25.875 9.449219 26.863281 7.714844 26.863281 5.710938 C 26.863281 3.878906 26.023438 2.1875 24.675781 1.289062 C 24.523438 1.1875 24.320312 1.230469 24.222656 1.378906 C 24.121094 1.53125 24.160156 1.734375 24.3125 1.835938 C 25.484375 2.613281 26.210938 4.097656 26.210938 5.710938 C 26.210938 8.144531 24.574219 10.125 22.566406 10.125 C 20.558594 10.125 18.925781 8.144531 18.925781 5.710938 C 18.925781 4.167969 19.605469 2.714844 20.699219 1.921875 C 20.84375 1.8125 20.878906 1.609375 20.769531 1.464844 C 20.664062 1.316406 20.460938 1.285156 20.3125 1.390625 C 19.035156 2.320312 18.273438 3.9375 18.273438 5.710938 C 18.273438 7.648438 19.199219 9.335938 20.558594 10.1875 L 20.558594 11.089844 C 20.558594 11.742188 20.265625 12.347656 19.753906 12.75 C 19.425781 13.007812 19.035156 13.164062 18.621094 13.199219 C 16.152344 13.40625 14.09375 15.25 13.613281 17.675781 L 12.5 23.277344 C 12.402344 23.78125 12.128906 24.238281 11.730469 24.566406 L 9.078125 26.75 C 8.027344 27.613281 7.074219 28.597656 6.242188 29.671875 L 4.660156 31.71875 C 4.476562 31.957031 4.183594 32.097656 3.882812 32.097656 L 0.742188 32.097656 C 0.480469 32.097656 0.242188 32.246094 0.121094 32.480469 C 0 32.714844 0.0195312 32.996094 0.175781 33.210938 C 0.707031 33.945312 1.5 34.441406 2.386719 34.597656 C 1.785156 35.203125 1.449219 36.027344 1.46875 36.886719 C 1.488281 37.789062 1.898438 38.640625 2.589844 39.222656 C 4.488281 40.816406 6.902344 41.699219 9.386719 41.699219 C 13.832031 41.699219 18.242188 41.046875 22.496094 39.765625 C 22.5 39.765625 22.5 39.765625 22.503906 39.765625 C 26.757812 41.046875 31.167969 41.699219 35.613281 41.699219 C 38.097656 41.699219 40.511719 40.820312 42.410156 39.222656 C 43.515625 38.296875 43.847656 36.746094 43.222656 35.453125 C 43.144531 35.289062 42.945312 35.21875 42.785156 35.300781 C 42.621094 35.378906 42.554688 35.574219 42.632812 35.734375 C 43.128906 36.761719 42.863281 37.988281 41.992188 38.71875 C 40.207031 40.21875 37.945312 41.042969 35.613281 41.042969 C 31.5625 41.042969 27.539062 40.492188 23.636719 39.410156 L 24.761719 39.058594 C 25.351562 38.875 25.957031 38.769531 26.574219 38.742188 L 30.730469 38.5625 C 31.042969 38.550781 31.304688 38.339844 31.378906 38.035156 C 31.433594 37.8125 31.378906 37.585938 31.242188 37.417969 L 34.886719 37.417969 C 35.066406 37.417969 35.210938 37.273438 35.210938 37.09375 C 35.210938 36.910156 35.066406 36.765625 34.886719 36.765625 C 34.886719 36.765625 30.242188 36.765625 30.234375 36.765625 L 27.585938 35.179688 C 27.367188 35.046875 27.09375 35.046875 26.871094 35.175781 L 24.210938 36.722656 C 24.054688 36.8125 24.003906 37.011719 24.09375 37.167969 C 24.183594 37.324219 24.382812 37.378906 24.542969 37.285156 L 27.203125 35.742188 C 27.21875 35.730469 27.234375 35.730469 27.25 35.742188 L 30.722656 37.824219 C 30.734375 37.828125 30.753906 37.839844 30.746094 37.875 C 30.738281 37.90625 30.714844 37.910156 30.703125 37.910156 L 26.546875 38.089844 C 25.875 38.117188 25.207031 38.234375 24.566406 38.433594 L 22.808594 38.988281 C 18.460938 40.351562 13.945312 41.042969 9.386719 41.042969 C 7.058594 41.042969 4.792969 40.21875 3.011719 38.722656 C 2.464844 38.261719 2.140625 37.585938 2.125 36.871094 C 2.109375 36.15625 2.402344 35.46875 2.929688 34.984375 C 3.039062 34.882812 3.15625 34.785156 3.273438 34.691406 L 4.113281 34.765625 C 4.171875 34.769531 4.234375 34.773438 4.292969 34.773438 C 4.757812 34.773438 5.207031 34.613281 5.570312 34.316406 L 12.902344 28.351562 C 13.9375 27.503906 14.746094 26.402344 15.246094 25.164062 L 17.003906 20.769531 L 17.386719 21.953125 C 18.109375 24.171875 18.046875 26.59375 17.207031 28.773438 L 16.132812 31.558594 C 15.933594 32.070312 15.453125 32.410156 14.902344 32.425781 L 8.984375 32.585938 C 8.804688 32.589844 8.660156 32.742188 8.667969 32.921875 C 8.671875 33.101562 8.824219 33.242188 9 33.238281 L 14.921875 33.078125 C 15.734375 33.058594 16.449219 32.550781 16.742188 31.792969 L 17.816406 29.007812 C 18.710938 26.691406 18.78125 24.109375 18.011719 21.75 L 17.347656 19.707031 C 17.304688 19.578125 17.183594 19.488281 17.046875 19.480469 C 16.910156 19.476562 16.78125 19.558594 16.734375 19.6875 L 14.636719 24.917969 C 14.183594 26.058594 13.4375 27.070312 12.488281 27.84375 L 5.160156 33.808594 C 4.878906 34.039062 4.527344 34.144531 4.171875 34.113281 L 2.757812 33.992188 C 1.9375 33.917969 1.191406 33.492188 0.707031 32.828125 C 0.703125 32.820312 0.691406 32.804688 0.703125 32.777344 C 0.71875 32.753906 0.738281 32.753906 0.746094 32.753906 L 3.882812 32.753906 C 4.386719 32.753906 4.871094 32.515625 5.175781 32.117188 L 6.761719 30.070312 C 7.5625 29.035156 8.484375 28.085938 9.496094 27.253906 L 12.148438 25.070312 C 12.660156 24.648438 13.015625 24.058594 13.144531 23.40625 L 14.257812 17.804688 C 14.679688 15.660156 16.5 14.035156 18.675781 13.847656 C 19.21875 13.804688 19.730469 13.601562 20.160156 13.261719 C 20.828125 12.734375 21.210938 11.941406 21.210938 11.089844 L 21.210938 10.519531 C 21.640625 10.6875 22.09375 10.78125 22.570312 10.78125 C 22.992188 10.78125 23.402344 10.707031 23.789062 10.570312 L 23.789062 11.089844 C 23.789062 11.941406 24.171875 12.734375 24.84375 13.261719 C 25.269531 13.601562 25.78125 13.804688 26.324219 13.851562 C 28.503906 14.035156 30.320312 15.660156 30.746094 17.804688 L 31.855469 23.40625 C 31.984375 24.058594 32.339844 24.648438 32.855469 25.070312 L 35.496094 27.242188 C 36.515625 28.082031 37.441406 29.039062 38.246094 30.085938 L 39.8125 32.117188 C 40.121094 32.515625 40.605469 32.753906 41.109375 32.753906 L 44.257812 32.753906 C 44.261719 32.753906 44.285156 32.753906 44.296875 32.78125 C 44.3125 32.804688 44.300781 32.820312 44.292969 32.828125 C 43.8125 33.496094 43.066406 33.921875 42.246094 33.992188 L 40.832031 34.117188 C 40.472656 34.148438 40.121094 34.039062 39.84375 33.8125 L 32.515625 27.84375 C 31.5625 27.070312 30.820312 26.058594 30.363281 24.921875 L 28.269531 19.6875 C 28.21875 19.5625 28.089844 19.476562 27.957031 19.484375 C 27.820312 19.488281 27.699219 19.578125 27.65625 19.710938 L 26.992188 21.75 C 26.222656 24.113281 26.292969 26.691406 27.1875 29.011719 L 28.257812 31.792969 C 28.550781 32.554688 29.269531 33.058594 30.082031 33.082031 L 38.167969 33.292969 L 39.429688 34.320312 C 39.796875 34.617188 40.246094 34.773438 40.710938 34.773438 C 40.769531 34.773438 40.828125 34.773438 40.890625 34.765625 L 42.304688 34.644531 C 43.3125 34.554688 44.234375 34.035156 44.824219 33.210938 C 44.980469 32.996094 45 32.714844 44.878906 32.480469 Z M 30.101562 32.425781 C 29.550781 32.410156 29.066406 32.070312 28.871094 31.558594 L 27.796875 28.773438 C 26.957031 26.59375 26.890625 24.171875 27.613281 21.953125 L 28 20.769531 L 29.757812 25.164062 C 30.253906 26.402344 31.066406 27.507812 32.101562 28.351562 L 37.339844 32.613281 Z M 30.101562 32.425781 " fill-opacity="1" fill-rule="nonzero"/><path fill="#ffffff" d="M 33.800781 20.363281 L 36.230469 20.546875 C 36.238281 20.546875 36.246094 20.546875 36.253906 20.546875 C 36.421875 20.546875 36.566406 20.414062 36.582031 20.242188 C 36.59375 20.0625 36.457031 19.90625 36.277344 19.894531 L 33.851562 19.710938 C 33.671875 19.695312 33.511719 19.832031 33.5 20.011719 C 33.488281 20.191406 33.621094 20.351562 33.800781 20.363281 Z M 33.800781 20.363281 " fill-opacity="1" fill-rule="nonzero"/><path fill="#ffffff" d="M 30.917969 13.546875 C 31.007812 13.546875 31.097656 13.511719 31.160156 13.4375 L 32.785156 11.625 C 32.90625 11.492188 32.894531 11.285156 32.761719 11.164062 C 32.625 11.042969 32.417969 11.054688 32.296875 11.1875 L 30.675781 13 C 30.554688 13.136719 30.566406 13.34375 30.699219 13.464844 C 30.761719 13.519531 30.839844 13.546875 30.917969 13.546875 Z M 30.917969 13.546875 " fill-opacity="1" fill-rule="nonzero"/><path fill="#ffffff" d="M 8.746094 20.546875 C 8.753906 20.546875 8.761719 20.546875 8.773438 20.546875 L 11.199219 20.363281 C 11.378906 20.347656 11.515625 20.191406 11.5 20.011719 C 11.488281 19.832031 11.328125 19.695312 11.152344 19.710938 L 8.722656 19.894531 C 8.542969 19.90625 8.410156 20.0625 8.421875 20.242188 C 8.433594 20.414062 8.578125 20.546875 8.746094 20.546875 Z M 8.746094 20.546875 " fill-opacity="1" fill-rule="nonzero"/><path fill="#ffffff" d="M 13.839844 13.4375 C 13.902344 13.511719 13.992188 13.546875 14.082031 13.546875 C 14.160156 13.546875 14.238281 13.519531 14.300781 13.464844 C 14.433594 13.34375 14.445312 13.136719 14.324219 13.003906 L 12.703125 11.1875 C 12.582031 11.054688 12.375 11.042969 12.238281 11.164062 C 12.105469 11.285156 12.09375 11.492188 12.214844 11.625 Z M 13.839844 13.4375 " fill-opacity="1" fill-rule="nonzero"/></svg>