<svg xmlns="http://www.w3.org/2000/svg" xmlns:xlink="http://www.w3.org/1999/xlink" width="60" zoomAndPan="magnify" viewBox="0 0 45 44.999999" height="60" preserveAspectRatio="xMidYMid meet" version="1.0"><defs><clipPath id="a4356acca2"><path d="M 1.546875 0 L 43.546875 0 L 43.546875 45 L 1.546875 45 Z M 1.546875 0 " clip-rule="nonzero"/></clipPath></defs><g clip-path="url(#a4356acca2)"><path fill="#ffffff" d="M 21.777344 4.128906 L 21.777344 0.6875 C 21.777344 0.296875 22.09375 -0.0195312 22.480469 -0.0195312 C 22.871094 -0.0195312 23.1875 0.296875 23.1875 0.6875 L 23.1875 4.128906 C 23.1875 4.519531 22.871094 4.835938 22.480469 4.835938 C 22.09375 4.835938 21.777344 4.519531 21.777344 4.128906 Z M 10.109375 9.546875 C 10.246094 9.683594 10.429688 9.753906 10.609375 9.753906 C 10.789062 9.753906 10.96875 9.683594 11.109375 9.546875 C 11.382812 9.269531 11.382812 8.824219 11.109375 8.546875 L 8.675781 6.113281 C 8.398438 5.839844 7.953125 5.839844 7.675781 6.113281 C 7.402344 6.390625 7.402344 6.835938 7.675781 7.113281 Z M 6.394531 20.921875 C 6.394531 20.53125 6.082031 20.214844 5.691406 20.214844 L 2.25 20.214844 C 1.859375 20.214844 1.542969 20.53125 1.542969 20.921875 C 1.542969 21.308594 1.859375 21.628906 2.25 21.628906 L 5.691406 21.628906 C 6.082031 21.628906 6.394531 21.308594 6.394531 20.921875 Z M 34.355469 9.753906 C 34.535156 9.753906 34.714844 9.683594 34.855469 9.546875 L 37.289062 7.113281 C 37.5625 6.835938 37.5625 6.390625 37.289062 6.113281 C 37.011719 5.839844 36.566406 5.839844 36.289062 6.113281 L 33.855469 8.546875 C 33.582031 8.824219 33.582031 9.269531 33.855469 9.546875 C 33.996094 9.683594 34.175781 9.753906 34.355469 9.753906 Z M 42.714844 20.214844 L 39.273438 20.214844 C 38.882812 20.214844 38.570312 20.53125 38.570312 20.921875 C 38.570312 21.308594 38.882812 21.628906 39.273438 21.628906 L 42.714844 21.628906 C 43.105469 21.628906 43.421875 21.308594 43.421875 20.921875 C 43.421875 20.53125 43.105469 20.214844 42.714844 20.214844 Z M 42.160156 41.40625 C 42.183594 41.753906 42.066406 42.097656 41.832031 42.351562 C 41.59375 42.601562 41.261719 42.75 40.914062 42.75 L 31.925781 42.75 C 31.96875 43.015625 32.003906 43.285156 32.023438 43.558594 C 32.050781 43.925781 31.925781 44.289062 31.675781 44.558594 C 31.425781 44.828125 31.070312 44.980469 30.703125 44.980469 L 14.261719 44.980469 C 13.894531 44.980469 13.539062 44.828125 13.289062 44.558594 C 13.039062 44.292969 12.914062 43.925781 12.941406 43.558594 C 12.960938 43.285156 12.996094 43.015625 13.035156 42.75 L 4.050781 42.75 C 3.703125 42.75 3.371094 42.601562 3.132812 42.351562 C 2.898438 42.097656 2.78125 41.753906 2.804688 41.40625 C 3.0625 37.992188 5.351562 35.152344 8.425781 34.046875 C 7.175781 33.152344 6.359375 31.691406 6.359375 30.042969 C 6.359375 27.359375 8.523438 25.171875 11.199219 25.128906 C 11.042969 24.714844 10.910156 24.285156 10.804688 23.855469 L 9.132812 23.855469 C 8.742188 23.855469 8.425781 23.539062 8.425781 23.148438 L 8.425781 18.695312 C 8.425781 18.304688 8.742188 17.988281 9.132812 17.988281 L 10.800781 17.988281 C 11.089844 16.839844 11.539062 15.753906 12.148438 14.738281 L 10.96875 13.554688 C 10.835938 13.421875 10.761719 13.242188 10.761719 13.054688 C 10.761719 12.867188 10.835938 12.691406 10.96875 12.558594 L 14.117188 9.40625 C 14.394531 9.132812 14.839844 9.132812 15.117188 9.40625 L 16.300781 10.589844 C 17.3125 9.980469 18.402344 9.527344 19.546875 9.242188 L 19.546875 7.570312 C 19.546875 7.179688 19.863281 6.863281 20.253906 6.863281 L 24.710938 6.863281 C 25.101562 6.863281 25.417969 7.179688 25.417969 7.570312 L 25.417969 9.242188 C 26.5625 9.527344 27.652344 9.980469 28.664062 10.589844 L 29.847656 9.40625 C 29.980469 9.273438 30.160156 9.199219 30.347656 9.199219 C 30.535156 9.199219 30.714844 9.273438 30.847656 9.40625 L 33.996094 12.558594 C 34.273438 12.832031 34.273438 13.28125 33.996094 13.554688 L 32.8125 14.738281 C 33.421875 15.75 33.875 16.839844 34.160156 17.988281 L 35.832031 17.988281 C 36.222656 17.988281 36.539062 18.304688 36.539062 18.695312 L 36.539062 23.148438 C 36.539062 23.539062 36.222656 23.855469 35.832031 23.855469 L 34.160156 23.855469 C 34.054688 24.285156 33.921875 24.714844 33.765625 25.128906 C 36.441406 25.171875 38.605469 27.359375 38.605469 30.042969 C 38.605469 31.691406 37.785156 33.152344 36.539062 34.046875 C 39.613281 35.152344 41.902344 37.992188 42.160156 41.40625 Z M 33.6875 26.539062 C 31.757812 26.539062 30.183594 28.113281 30.183594 30.042969 C 30.183594 31.972656 31.753906 33.546875 33.683594 33.546875 L 33.691406 33.546875 C 35.621094 33.546875 37.191406 31.972656 37.191406 30.042969 C 37.191406 28.113281 35.621094 26.539062 33.6875 26.539062 Z M 30.835938 34.042969 C 30.003906 33.449219 29.367188 32.605469 29.035156 31.621094 L 28.664062 31.253906 C 28.40625 31.40625 28.144531 31.550781 27.875 31.6875 C 27.585938 33.152344 26.714844 34.40625 25.511719 35.207031 C 26.234375 35.449219 26.921875 35.777344 27.554688 36.179688 C 28.480469 35.210938 29.601562 34.484375 30.835938 34.042969 Z M 19.453125 35.207031 C 18.25 34.40625 17.378906 33.152344 17.089844 31.6875 C 16.820312 31.550781 16.558594 31.40625 16.300781 31.253906 L 15.929688 31.621094 C 15.597656 32.605469 14.957031 33.449219 14.128906 34.042969 C 15.363281 34.484375 16.484375 35.210938 17.410156 36.179688 C 18.042969 35.777344 18.730469 35.449219 19.453125 35.207031 Z M 22.480469 34.707031 C 24.734375 34.707031 26.566406 32.875 26.566406 30.625 C 26.566406 28.371094 24.734375 26.539062 22.480469 26.539062 C 20.230469 26.539062 18.398438 28.371094 18.398438 30.625 C 18.398438 32.875 20.230469 34.707031 22.480469 34.707031 Z M 28.695312 20.921875 C 28.695312 17.496094 25.910156 14.707031 22.480469 14.707031 C 19.054688 14.707031 16.269531 17.496094 16.269531 20.921875 C 16.269531 23.089844 17.386719 25.078125 19.214844 26.207031 C 19.546875 25.960938 19.902344 25.753906 20.285156 25.585938 L 20.285156 22.695312 L 19.535156 22.695312 C 19.109375 22.695312 18.730469 22.457031 18.542969 22.074219 C 18.355469 21.699219 18.402344 21.253906 18.660156 20.917969 L 21.609375 17.101562 C 21.820312 16.832031 22.140625 16.675781 22.480469 16.675781 C 22.824219 16.675781 23.144531 16.832031 23.355469 17.101562 L 26.300781 20.917969 C 26.5625 21.253906 26.605469 21.699219 26.421875 22.074219 C 26.234375 22.457031 25.855469 22.695312 25.429688 22.695312 L 24.679688 22.695312 L 24.679688 25.585938 C 25.058594 25.753906 25.417969 25.960938 25.75 26.207031 C 27.578125 25.078125 28.695312 23.089844 28.695312 20.921875 Z M 21.699219 21.988281 L 21.699219 25.183594 C 21.953125 25.148438 22.214844 25.128906 22.480469 25.128906 C 22.75 25.128906 23.011719 25.148438 23.265625 25.183594 L 23.265625 21.988281 C 23.265625 21.597656 23.582031 21.28125 23.972656 21.28125 L 24.800781 21.28125 L 22.480469 18.28125 L 20.164062 21.28125 L 20.992188 21.28125 C 21.378906 21.28125 21.699219 21.597656 21.699219 21.988281 Z M 11.367188 22.445312 C 11.703125 22.445312 11.992188 22.679688 12.058594 23.011719 C 12.222656 23.828125 12.484375 24.625 12.835938 25.382812 C 14.664062 25.996094 16.015625 27.65625 16.175781 29.648438 C 16.316406 29.644531 16.464844 29.683594 16.589844 29.769531 C 16.730469 29.859375 16.875 29.949219 17.019531 30.039062 C 17.132812 28.976562 17.546875 28.007812 18.175781 27.214844 C 16.109375 25.800781 14.855469 23.464844 14.855469 20.921875 C 14.855469 16.714844 18.277344 13.296875 22.480469 13.296875 C 26.6875 13.296875 30.109375 16.714844 30.109375 20.921875 C 30.109375 23.464844 28.855469 25.800781 26.789062 27.214844 C 27.417969 28.007812 27.832031 28.976562 27.945312 30.039062 C 28.089844 29.949219 28.234375 29.859375 28.375 29.765625 C 28.5 29.683594 28.644531 29.644531 28.789062 29.648438 C 28.949219 27.65625 30.300781 25.996094 32.128906 25.382812 C 32.480469 24.625 32.742188 23.828125 32.90625 23.011719 C 32.96875 22.679688 33.261719 22.441406 33.597656 22.441406 L 35.128906 22.441406 L 35.128906 19.398438 L 33.597656 19.398438 C 33.261719 19.398438 32.96875 19.160156 32.90625 18.832031 C 32.632812 17.46875 32.101562 16.1875 31.328125 15.027344 C 31.140625 14.75 31.179688 14.378906 31.417969 14.136719 L 32.5 13.054688 L 30.347656 10.902344 L 29.265625 11.988281 C 29.027344 12.226562 28.652344 12.261719 28.375 12.074219 C 27.214844 11.300781 25.933594 10.769531 24.574219 10.5 C 24.242188 10.433594 24.003906 10.144531 24.003906 9.808594 L 24.003906 8.277344 L 20.960938 8.277344 L 20.960938 9.808594 C 20.960938 10.144531 20.722656 10.433594 20.390625 10.5 C 19.027344 10.769531 17.75 11.300781 16.589844 12.074219 C 16.3125 12.261719 15.9375 12.226562 15.699219 11.988281 L 14.617188 10.902344 L 12.464844 13.054688 L 13.546875 14.136719 C 13.785156 14.378906 13.824219 14.75 13.636719 15.027344 C 12.863281 16.191406 12.332031 17.46875 12.058594 18.832031 C 11.992188 19.160156 11.703125 19.398438 11.367188 19.398438 L 9.835938 19.398438 L 9.835938 22.445312 Z M 11.273438 33.546875 L 11.277344 33.546875 C 13.210938 33.546875 14.78125 31.972656 14.78125 30.042969 C 14.78125 28.113281 13.210938 26.539062 11.277344 26.539062 C 9.34375 26.539062 7.773438 28.113281 7.773438 30.042969 C 7.773438 31.972656 9.34375 33.546875 11.273438 33.546875 Z M 16.261719 37.023438 C 14.9375 35.707031 13.15625 34.960938 11.277344 34.960938 C 11.277344 34.960938 11.273438 34.960938 11.273438 34.960938 C 7.648438 34.960938 4.585938 37.746094 4.230469 41.335938 L 13.378906 41.335938 C 13.929688 39.644531 14.941406 38.15625 16.261719 37.023438 Z M 30.609375 43.570312 C 30.246094 39.386719 26.695312 36.121094 22.480469 36.121094 C 18.269531 36.121094 14.71875 39.386719 14.355469 43.570312 Z M 40.734375 41.335938 C 40.378906 37.746094 37.316406 34.960938 33.691406 34.960938 C 33.691406 34.960938 33.6875 34.960938 33.6875 34.960938 C 33.6875 34.960938 33.6875 34.960938 33.683594 34.960938 C 31.808594 34.960938 30.027344 35.707031 28.703125 37.023438 C 30.023438 38.15625 31.035156 39.644531 31.585938 41.335938 Z M 40.734375 41.335938 " fill-opacity="1" fill-rule="nonzero"/><path fill="#ffffff" d="M 21.777344 4.128906 L 21.777344 0.6875 C 21.777344 0.296875 22.09375 -0.0195312 22.480469 -0.0195312 C 22.871094 -0.0195312 23.1875 0.296875 23.1875 0.6875 L 23.1875 4.128906 C 23.1875 4.519531 22.871094 4.835938 22.480469 4.835938 C 22.09375 4.835938 21.777344 4.519531 21.777344 4.128906 Z M 10.109375 9.546875 C 10.246094 9.683594 10.429688 9.753906 10.609375 9.753906 C 10.789062 9.753906 10.96875 9.683594 11.109375 9.546875 C 11.382812 9.269531 11.382812 8.824219 11.109375 8.546875 L 8.675781 6.113281 C 8.398438 5.839844 7.953125 5.839844 7.675781 6.113281 C 7.402344 6.390625 7.402344 6.835938 7.675781 7.113281 Z M 6.394531 20.921875 C 6.394531 20.53125 6.082031 20.214844 5.691406 20.214844 L 2.25 20.214844 C 1.859375 20.214844 1.542969 20.53125 1.542969 20.921875 C 1.542969 21.308594 1.859375 21.628906 2.25 21.628906 L 5.691406 21.628906 C 6.082031 21.628906 6.394531 21.308594 6.394531 20.921875 Z M 34.355469 9.753906 C 34.535156 9.753906 34.714844 9.683594 34.855469 9.546875 L 37.289062 7.113281 C 37.5625 6.835938 37.5625 6.390625 37.289062 6.113281 C 37.011719 5.839844 36.566406 5.839844 36.289062 6.113281 L 33.855469 8.546875 C 33.582031 8.824219 33.582031 9.269531 33.855469 9.546875 C 33.996094 9.683594 34.175781 9.753906 34.355469 9.753906 Z M 42.714844 20.214844 L 39.273438 20.214844 C 38.882812 20.214844 38.570312 20.53125 38.570312 20.921875 C 38.570312 21.308594 38.882812 21.628906 39.273438 21.628906 L 42.714844 21.628906 C 43.105469 21.628906 43.421875 21.308594 43.421875 20.921875 C 43.421875 20.53125 43.105469 20.214844 42.714844 20.214844 Z M 42.160156 41.40625 C 42.183594 41.753906 42.066406 42.097656 41.832031 42.351562 C 41.59375 42.601562 41.261719 42.75 40.914062 42.75 L 31.925781 42.75 C 31.96875 43.015625 32.003906 43.285156 32.023438 43.558594 C 32.050781 43.925781 31.925781 44.289062 31.675781 44.558594 C 31.425781 44.828125 31.070312 44.980469 30.703125 44.980469 L 14.261719 44.980469 C 13.894531 44.980469 13.539062 44.828125 13.289062 44.558594 C 13.039062 44.292969 12.914062 43.925781 12.941406 43.558594 C 12.960938 43.285156 12.996094 43.015625 13.035156 42.75 L 4.050781 42.75 C 3.703125 42.75 3.371094 42.601562 3.132812 42.351562 C 2.898438 42.097656 2.78125 41.753906 2.804688 41.40625 C 3.0625 37.992188 5.351562 35.152344 8.425781 34.046875 C 7.175781 33.152344 6.359375 31.691406 6.359375 30.042969 C 6.359375 27.359375 8.523438 25.171875 11.199219 25.128906 C 11.042969 24.714844 10.910156 24.285156 10.804688 23.855469 L 9.132812 23.855469 C 8.742188 23.855469 8.425781 23.539062 8.425781 23.148438 L 8.425781 18.695312 C 8.425781 18.304688 8.742188 17.988281 9.132812 17.988281 L 10.800781 17.988281 C 11.089844 16.839844 11.539062 15.753906 12.148438 14.738281 L 10.96875 13.554688 C 10.835938 13.421875 10.761719 13.242188 10.761719 13.054688 C 10.761719 12.867188 10.835938 12.691406 10.96875 12.558594 L 14.117188 9.40625 C 14.394531 9.132812 14.839844 9.132812 15.117188 9.40625 L 16.300781 10.589844 C 17.3125 9.980469 18.402344 9.527344 19.546875 9.242188 L 19.546875 7.570312 C 19.546875 7.179688 19.863281 6.863281 20.253906 6.863281 L 24.710938 6.863281 C 25.101562 6.863281 25.417969 7.179688 25.417969 7.570312 L 25.417969 9.242188 C 26.5625 9.527344 27.652344 9.980469 28.664062 10.589844 L 29.847656 9.40625 C 29.980469 9.273438 30.160156 9.199219 30.347656 9.199219 C 30.535156 9.199219 30.714844 9.273438 30.847656 9.40625 L 33.996094 12.558594 C 34.273438 12.832031 34.273438 13.28125 33.996094 13.554688 L 32.8125 14.738281 C 33.421875 15.75 33.875 16.839844 34.160156 17.988281 L 35.832031 17.988281 C 36.222656 17.988281 36.539062 18.304688 36.539062 18.695312 L 36.539062 23.148438 C 36.539062 23.539062 36.222656 23.855469 35.832031 23.855469 L 34.160156 23.855469 C 34.054688 24.285156 33.921875 24.714844 33.765625 25.128906 C 36.441406 25.171875 38.605469 27.359375 38.605469 30.042969 C 38.605469 31.691406 37.785156 33.152344 36.539062 34.046875 C 39.613281 35.152344 41.902344 37.992188 42.160156 41.40625 Z M 33.6875 26.539062 C 31.757812 26.539062 30.183594 28.113281 30.183594 30.042969 C 30.183594 31.972656 31.753906 33.546875 33.683594 33.546875 L 33.691406 33.546875 C 35.621094 33.546875 37.191406 31.972656 37.191406 30.042969 C 37.191406 28.113281 35.621094 26.539062 33.6875 26.539062 Z M 30.835938 34.042969 C 30.003906 33.449219 29.367188 32.605469 29.035156 31.621094 L 28.664062 31.253906 C 28.40625 31.40625 28.144531 31.550781 27.875 31.6875 C 27.585938 33.152344 26.714844 34.40625 25.511719 35.207031 C 26.234375 35.449219 26.921875 35.777344 27.554688 36.179688 C 28.480469 35.210938 29.601562 34.484375 30.835938 34.042969 Z M 19.453125 35.207031 C 18.25 34.40625 17.378906 33.152344 17.089844 31.6875 C 16.820312 31.550781 16.558594 31.40625 16.300781 31.253906 L 15.929688 31.621094 C 15.597656 32.605469 14.957031 33.449219 14.128906 34.042969 C 15.363281 34.484375 16.484375 35.210938 17.410156 36.179688 C 18.042969 35.777344 18.730469 35.449219 19.453125 35.207031 Z M 22.480469 34.707031 C 24.734375 34.707031 26.566406 32.875 26.566406 30.625 C 26.566406 28.371094 24.734375 26.539062 22.480469 26.539062 C 20.230469 26.539062 18.398438 28.371094 18.398438 30.625 C 18.398438 32.875 20.230469 34.707031 22.480469 34.707031 Z M 28.695312 20.921875 C 28.695312 17.496094 25.910156 14.707031 22.480469 14.707031 C 19.054688 14.707031 16.269531 17.496094 16.269531 20.921875 C 16.269531 23.089844 17.386719 25.078125 19.214844 26.207031 C 19.546875 25.960938 19.902344 25.753906 20.285156 25.585938 L 20.285156 22.695312 L 19.535156 22.695312 C 19.109375 22.695312 18.730469 22.457031 18.542969 22.074219 C 18.355469 21.699219 18.402344 21.253906 18.660156 20.917969 L 21.609375 17.101562 C 21.820312 16.832031 22.140625 16.675781 22.480469 16.675781 C 22.824219 16.675781 23.144531 16.832031 23.355469 17.101562 L 26.300781 20.917969 C 26.5625 21.253906 26.605469 21.699219 26.421875 22.074219 C 26.234375 22.457031 25.855469 22.695312 25.429688 22.695312 L 24.679688 22.695312 L 24.679688 25.585938 C 25.058594 25.753906 25.417969 25.960938 25.75 26.207031 C 27.578125 25.078125 28.695312 23.089844 28.695312 20.921875 Z M 21.699219 21.988281 L 21.699219 25.183594 C 21.953125 25.148438 22.214844 25.128906 22.480469 25.128906 C 22.75 25.128906 23.011719 25.148438 23.265625 25.183594 L 23.265625 21.988281 C 23.265625 21.597656 23.582031 21.28125 23.972656 21.28125 L 24.800781 21.28125 L 22.480469 18.28125 L 20.164062 21.28125 L 20.992188 21.28125 C 21.378906 21.28125 21.699219 21.597656 21.699219 21.988281 Z M 11.367188 22.445312 C 11.703125 22.445312 11.992188 22.679688 12.058594 23.011719 C 12.222656 23.828125 12.484375 24.625 12.835938 25.382812 C 14.664062 25.996094 16.015625 27.65625 16.175781 29.648438 C 16.316406 29.644531 16.464844 29.683594 16.589844 29.769531 C 16.730469 29.859375 16.875 29.949219 17.019531 30.039062 C 17.132812 28.976562 17.546875 28.007812 18.175781 27.214844 C 16.109375 25.800781 14.855469 23.464844 14.855469 20.921875 C 14.855469 16.714844 18.277344 13.296875 22.480469 13.296875 C 26.6875 13.296875 30.109375 16.714844 30.109375 20.921875 C 30.109375 23.464844 28.855469 25.800781 26.789062 27.214844 C 27.417969 28.007812 27.832031 28.976562 27.945312 30.039062 C 28.089844 29.949219 28.234375 29.859375 28.375 29.765625 C 28.5 29.683594 28.644531 29.644531 28.789062 29.648438 C 28.949219 27.65625 30.300781 25.996094 32.128906 25.382812 C 32.480469 24.625 32.742188 23.828125 32.90625 23.011719 C 32.96875 22.679688 33.261719 22.441406 33.597656 22.441406 L 35.128906 22.441406 L 35.128906 19.398438 L 33.597656 19.398438 C 33.261719 19.398438 32.96875 19.160156 32.90625 18.832031 C 32.632812 17.46875 32.101562 16.1875 31.328125 15.027344 C 31.140625 14.75 31.179688 14.378906 31.417969 14.136719 L 32.5 13.054688 L 30.347656 10.902344 L 29.265625 11.988281 C 29.027344 12.226562 28.652344 12.261719 28.375 12.074219 C 27.214844 11.300781 25.933594 10.769531 24.574219 10.5 C 24.242188 10.433594 24.003906 10.144531 24.003906 9.808594 L 24.003906 8.277344 L 20.960938 8.277344 L 20.960938 9.808594 C 20.960938 10.144531 20.722656 10.433594 20.390625 10.5 C 19.027344 10.769531 17.75 11.300781 16.589844 12.074219 C 16.3125 12.261719 15.9375 12.226562 15.699219 11.988281 L 14.617188 10.902344 L 12.464844 13.054688 L 13.546875 14.136719 C 13.785156 14.378906 13.824219 14.75 13.636719 15.027344 C 12.863281 16.191406 12.332031 17.46875 12.058594 18.832031 C 11.992188 19.160156 11.703125 19.398438 11.367188 19.398438 L 9.835938 19.398438 L 9.835938 22.445312 Z M 11.273438 33.546875 L 11.277344 33.546875 C 13.210938 33.546875 14.78125 31.972656 14.78125 30.042969 C 14.78125 28.113281 13.210938 26.539062 11.277344 26.539062 C 9.34375 26.539062 7.773438 28.113281 7.773438 30.042969 C 7.773438 31.972656 9.34375 33.546875 11.273438 33.546875 Z M 16.261719 37.023438 C 14.9375 35.707031 13.15625 34.960938 11.277344 34.960938 C 11.277344 34.960938 11.273438 34.960938 11.273438 34.960938 C 7.648438 34.960938 4.585938 37.746094 4.230469 41.335938 L 13.378906 41.335938 C 13.929688 39.644531 14.941406 38.15625 16.261719 37.023438 Z M 30.609375 43.570312 C 30.246094 39.386719 26.695312 36.121094 22.480469 36.121094 C 18.269531 36.121094 14.71875 39.386719 14.355469 43.570312 Z M 40.734375 41.335938 C 40.378906 37.746094 37.316406 34.960938 33.691406 34.960938 C 33.691406 34.960938 33.6875 34.960938 33.6875 34.960938 C 33.6875 34.960938 33.6875 34.960938 33.683594 34.960938 C 31.808594 34.960938 30.027344 35.707031 28.703125 37.023438 C 30.023438 38.15625 31.035156 39.644531 31.585938 41.335938 Z M 40.734375 41.335938 " fill-opacity="1" fill-rule="nonzero"/></g></svg>