<svg xmlns="http://www.w3.org/2000/svg" xmlns:xlink="http://www.w3.org/1999/xlink" width="70" zoomAndPan="magnify" viewBox="0 0 52.5 52.499999" height="70" preserveAspectRatio="xMidYMid meet" version="1.0"><defs><clipPath id="07dff29ecc"><path d="M 14.785156 13.445312 L 37.21875 13.445312 L 37.21875 35.4375 L 14.785156 35.4375 Z M 14.785156 13.445312 " clip-rule="nonzero"/></clipPath><clipPath id="0fc8c506c6"><path d="M 0.550781 9.300781 L 51.8125 9.300781 L 51.8125 42.730469 L 0.550781 42.730469 Z M 0.550781 9.300781 " clip-rule="nonzero"/></clipPath></defs><g clip-path="url(#07dff29ecc)"><path fill="#ffffff" d="M 14.785156 13.445312 L 37.203125 13.445312 L 37.203125 35.4375 L 14.785156 35.4375 Z M 14.785156 13.445312 " fill-opacity="1" fill-rule="nonzero"/></g><g clip-path="url(#0fc8c506c6)"><path fill="#ff3131" d="M 43.660156 9.300781 L 8.332031 9.300781 C 4.050781 9.300781 0.574219 12.777344 0.574219 17.058594 L 0.574219 34.9375 C 0.574219 39.21875 4.050781 42.695312 8.332031 42.695312 L 43.660156 42.695312 C 47.941406 42.695312 51.421875 39.21875 51.421875 34.9375 L 51.421875 17.058594 C 51.421875 12.777344 47.941406 9.300781 43.660156 9.300781 Z M 20.769531 35.058594 L 20.769531 16.949219 L 36.453125 26.007812 L 20.769531 35.070312 Z M 20.769531 35.058594 " fill-opacity="1" fill-rule="nonzero"/><path fill="#ff3131" d="M 43.660156 9.300781 L 8.332031 9.300781 C 4.050781 9.300781 0.574219 12.777344 0.574219 17.058594 L 0.574219 34.9375 C 0.574219 39.21875 4.050781 42.695312 8.332031 42.695312 L 43.660156 42.695312 C 47.941406 42.695312 51.421875 39.21875 51.421875 34.9375 L 51.421875 17.058594 C 51.421875 12.777344 47.941406 9.300781 43.660156 9.300781 Z M 20.769531 35.058594 L 20.769531 16.949219 L 36.453125 26.007812 L 20.769531 35.070312 Z M 20.769531 35.058594 " fill-opacity="1" fill-rule="nonzero"/></g></svg>